<svg xmlns="http://www.w3.org/2000/svg" xmlns:xlink="http://www.w3.org/1999/xlink" width="500" zoomAndPan="magnify" viewBox="0 0 375 374.999991" height="500" preserveAspectRatio="xMidYMid meet" version="1.0"><defs><g/><clipPath id="id1"><path d="M 90.34375 104 L 294.34375 104 L 294.34375 297 L 90.34375 297 Z M 90.34375 104 " clip-rule="nonzero"/></clipPath></defs><g clip-path="url(#id1)"><path fill="#000000" d="M 293.910156 143.65625 C 293.84375 142.324219 293.90625 140.910156 293.664062 139.597656 C 293.382812 138.066406 292.953125 136.550781 292.597656 135.035156 C 291.980469 132.398438 290.894531 130.023438 289.855469 127.519531 C 288.839844 125.074219 287.054688 122.917969 285.496094 120.785156 C 284.761719 119.773438 283.660156 118.980469 282.742188 118.140625 C 281.800781 117.285156 280.851562 116.136719 279.746094 115.480469 C 278.496094 114.742188 276.980469 114.261719 275.648438 113.675781 C 274.644531 113.234375 273.644531 112.714844 272.589844 112.40625 C 271.621094 112.121094 270.660156 111.800781 269.695312 111.503906 C 269.785156 111.273438 269.863281 111.039062 269.953125 110.804688 C 270.507812 109.335938 271.0625 107.871094 271.617188 106.402344 C 272.300781 104.589844 269.417969 103.417969 268.507812 105.089844 C 267.511719 106.925781 266.503906 108.742188 265.574219 110.597656 C 265.203125 110.5625 264.832031 110.542969 264.453125 110.542969 C 262.734375 110.546875 261.007812 110.496094 259.289062 110.558594 C 258.113281 110.601562 256.941406 111.078125 255.820312 111.394531 C 254.523438 111.757812 253.175781 112.046875 251.90625 112.492188 C 250.503906 112.980469 249.148438 113.691406 247.789062 114.289062 C 247.324219 114.492188 246.878906 114.710938 246.429688 114.929688 C 246.597656 114.277344 246.761719 113.625 246.929688 112.972656 C 247.484375 110.804688 244.433594 110.074219 243.648438 112.070312 C 243.058594 113.566406 242.464844 115.0625 241.875 116.558594 C 241.730469 116.929688 241.578125 117.296875 241.429688 117.667969 C 241.074219 117.878906 240.722656 118.085938 240.367188 118.296875 C 235.898438 120.957031 232.039062 124.585938 228.257812 128.113281 C 227.207031 129.097656 226.164062 130.089844 225.117188 131.078125 C 224.285156 131.867188 223.402344 132.59375 222.726562 133.519531 C 221.738281 134.882812 220.769531 136.257812 219.789062 137.625 C 219.515625 138.003906 219.222656 138.378906 218.964844 138.773438 C 219.078125 138.617188 219.210938 138.46875 218.980469 138.753906 C 218.964844 138.773438 218.953125 138.789062 218.9375 138.808594 C 218.925781 138.824219 218.914062 138.84375 218.902344 138.863281 C 218.910156 138.847656 218.921875 138.832031 218.933594 138.8125 C 218.726562 139.070312 218.523438 139.328125 218.320312 139.582031 C 214.722656 144.097656 211.386719 148.789062 207.902344 153.390625 C 204.632812 157.703125 202.4375 162.753906 199.859375 167.496094 C 199.191406 168.71875 198.472656 169.917969 197.75 171.113281 C 196.957031 169.570312 196.160156 168.027344 195.332031 166.496094 C 195.53125 165.78125 195.746094 165.070312 195.9375 164.34375 C 196.101562 163.714844 196.261719 163.082031 196.425781 162.453125 C 196.917969 160.558594 194.355469 159.527344 193.316406 161.144531 C 193.125 161.441406 192.929688 161.742188 192.734375 162.039062 C 192.25 161.273438 191.757812 160.511719 191.234375 159.769531 C 189.53125 157.351562 187.9375 154.976562 186.4375 152.433594 C 186.378906 152.335938 186.320312 152.234375 186.265625 152.132812 C 186.328125 151.410156 186.382812 150.683594 186.464844 149.980469 C 186.546875 149.289062 186.625 148.59375 186.707031 147.902344 C 186.910156 146.136719 184.34375 145.71875 183.535156 147.042969 C 183.421875 147.230469 183.308594 147.414062 183.195312 147.597656 C 182.558594 146.78125 181.921875 145.964844 181.28125 145.148438 C 180.980469 144.761719 180.675781 144.378906 180.375 143.992188 C 180.355469 143.960938 180.328125 143.914062 180.273438 143.835938 C 180.078125 143.535156 179.867188 143.246094 179.664062 142.949219 C 178.660156 141.5 177.667969 140.042969 176.652344 138.601562 C 175.710938 137.261719 174.457031 136.152344 173.21875 135.035156 C 173.359375 134.410156 173.496094 133.789062 173.628906 133.167969 C 173.804688 132.359375 173.980469 131.554688 174.15625 130.746094 C 174.550781 128.9375 172.003906 127.664062 171.046875 129.4375 C 170.664062 130.144531 170.285156 130.851562 169.90625 131.558594 C 168.714844 130.039062 167.601562 128.421875 166.148438 127.183594 C 164.007812 125.359375 161.882812 123.519531 159.683594 121.761719 C 158.421875 120.753906 157.164062 119.730469 155.890625 118.730469 C 154.792969 117.867188 153.523438 117.1875 152.34375 116.449219 C 152.328125 116.4375 152.3125 116.429688 152.296875 116.421875 C 152.394531 115.945312 152.492188 115.46875 152.589844 114.992188 C 152.949219 113.222656 150.34375 111.832031 149.476562 113.683594 C 149.34375 113.972656 149.210938 114.261719 149.074219 114.550781 C 147.644531 113.769531 146.195312 113.027344 144.707031 112.285156 C 142.140625 111.003906 139.3125 110.570312 136.515625 109.964844 C 135.355469 109.714844 134.15625 109.675781 132.972656 109.570312 C 131.558594 109.445312 130.082031 109.175781 128.660156 109.195312 C 127.992188 109.203125 127.308594 109.28125 126.625 109.371094 C 125.976562 109.054688 125.09375 109.117188 124.492188 109.675781 C 124.34375 109.695312 124.195312 109.71875 124.046875 109.734375 C 122.90625 109.867188 121.753906 109.941406 120.644531 110.246094 C 118.863281 110.734375 117.078125 111.222656 115.296875 111.710938 C 114.230469 112 113.339844 112.546875 112.371094 113.082031 C 110.972656 113.855469 109.484375 114.558594 108.140625 115.425781 C 107.054688 116.125 106.054688 117.019531 105.03125 117.804688 C 104.050781 118.558594 102.90625 119.261719 102.050781 120.152344 C 100.84375 121.40625 99.777344 122.839844 98.65625 124.167969 C 97.949219 125.007812 97.363281 125.734375 96.878906 126.722656 C 96.070312 128.371094 95.25 130.015625 94.453125 131.667969 C 93.953125 132.710938 93.742188 133.824219 93.464844 134.945312 C 93.09375 136.425781 92.636719 137.910156 92.351562 139.410156 C 92.085938 140.777344 92.253906 142.304688 92.238281 143.6875 C 92.222656 144.863281 92.144531 146.054688 92.21875 147.222656 C 92.390625 149.925781 92.75 152.625 93.011719 155.324219 C 93.015625 155.332031 93.015625 155.339844 93.015625 155.347656 C 92.371094 156.992188 91.710938 158.628906 91.046875 160.269531 C 90.417969 161.835938 92.730469 163.035156 93.804688 162.074219 C 93.96875 162.6875 94.167969 163.289062 94.363281 163.910156 C 95.253906 166.738281 96.167969 169.550781 97.128906 172.355469 C 98.953125 177.679688 100.921875 182.964844 102.855469 188.25 C 103.742188 190.683594 105.210938 192.972656 106.402344 195.269531 C 106.429688 195.324219 106.460938 195.386719 106.488281 195.445312 C 106.464844 195.515625 106.4375 195.589844 106.414062 195.664062 C 106.078125 196.628906 106.785156 197.445312 107.628906 197.71875 C 108.34375 199.175781 109.074219 200.632812 109.933594 201.988281 C 112.980469 206.804688 116.027344 211.625 119.179688 216.375 C 120.894531 218.964844 122.714844 221.386719 124.621094 223.839844 C 124.953125 224.269531 125.289062 224.699219 125.625 225.132812 C 125.640625 225.15625 125.664062 225.191406 125.699219 225.246094 C 125.878906 225.511719 126.070312 225.773438 126.253906 226.035156 C 127.292969 227.511719 128.316406 228.996094 129.367188 230.460938 C 130.09375 231.472656 130.984375 232.367188 131.816406 233.292969 C 132.445312 233.996094 133.074219 234.699219 133.703125 235.398438 C 133.90625 235.625 134.101562 235.871094 134.316406 236.082031 C 134.34375 236.109375 134.355469 236.121094 134.371094 236.136719 C 134.558594 236.386719 134.75 236.632812 134.933594 236.882812 C 134.523438 238.097656 134.179688 239.332031 133.808594 240.5625 C 133.5625 241.386719 133.3125 242.210938 133.0625 243.039062 C 132.515625 244.851562 135.300781 246.09375 136.171875 244.347656 C 136.761719 243.167969 137.339844 241.984375 137.917969 240.800781 C 138.382812 241.398438 138.847656 242 139.316406 242.59375 C 141.183594 244.945312 142.988281 247.222656 145.082031 249.371094 C 147.171875 251.515625 149.296875 253.59375 151.46875 255.65625 C 153.519531 257.609375 155.292969 259.796875 157.167969 261.921875 C 158.800781 263.769531 160.707031 265.429688 162.488281 267.136719 C 163.070312 267.695312 163.648438 268.265625 164.230469 268.835938 C 163.9375 269.507812 163.640625 270.183594 163.34375 270.855469 C 162.484375 272.816406 165.289062 274.5625 166.28125 272.570312 C 166.488281 272.160156 166.6875 271.746094 166.890625 271.332031 C 167.433594 271.804688 167.984375 272.261719 168.558594 272.6875 C 170.011719 273.773438 171.46875 274.859375 172.921875 275.945312 C 173.003906 276.007812 173.082031 276.066406 173.164062 276.128906 C 173.191406 276.15625 173.222656 276.191406 173.292969 276.261719 C 173.859375 276.839844 174.472656 277.382812 175.0625 277.941406 C 179.121094 281.792969 183.5 285.261719 187.839844 288.792969 C 187.707031 289.195312 187.5625 289.585938 187.449219 289.996094 C 187.023438 291.515625 186.597656 293.035156 186.167969 294.554688 C 185.667969 296.351562 188.511719 297.683594 189.28125 295.867188 C 189.902344 294.394531 190.523438 292.921875 191.148438 291.453125 C 192.195312 292.285156 193.25 293.113281 194.296875 293.949219 C 195.019531 294.523438 195.992188 294.640625 196.703125 293.949219 C 196.894531 293.761719 197.027344 293.507812 197.109375 293.234375 C 198.738281 291.679688 200.34375 290.097656 202.023438 288.605469 C 204.039062 286.820312 206.105469 285.097656 207.957031 283.144531 C 211.796875 279.09375 215.769531 275.242188 219.933594 271.527344 C 222 269.683594 223.628906 267.535156 225.378906 265.386719 C 226.96875 263.441406 229.039062 261.933594 230.738281 260.089844 C 231.113281 259.683594 231.457031 259.242188 231.789062 258.789062 C 232.089844 258.660156 232.367188 258.417969 232.574219 258.023438 C 232.769531 257.644531 232.972656 257.269531 233.175781 256.894531 C 233.664062 256.246094 234.152344 255.601562 234.636719 254.953125 C 234.765625 254.785156 234.890625 254.617188 235.019531 254.449219 C 235.03125 254.441406 235.035156 254.441406 235.054688 254.425781 C 236.320312 253.457031 237.390625 251.976562 238.492188 250.820312 C 239.152344 250.128906 239.769531 249.460938 240.359375 248.710938 C 242.070312 246.53125 243.789062 244.363281 245.445312 242.144531 C 246.328125 240.96875 247.199219 239.78125 248.089844 238.609375 C 248.113281 238.585938 248.125 238.574219 248.171875 238.527344 C 248.371094 238.320312 248.554688 238.097656 248.746094 237.886719 C 249.398438 237.164062 250.046875 236.445312 250.695312 235.722656 C 252.289062 233.953125 253.648438 232.105469 255.003906 230.179688 C 254.976562 230.273438 254.949219 230.367188 254.921875 230.464844 C 254.410156 232.265625 257.214844 233.566406 258.03125 231.773438 C 259.992188 227.480469 262.097656 223.195312 263.796875 218.789062 C 263.914062 218.488281 264.023438 218.1875 264.136719 217.882812 C 264.429688 217.492188 264.726562 217.101562 265.019531 216.710938 C 266.445312 214.792969 268.066406 212.917969 269.292969 210.863281 C 270.667969 208.566406 271.878906 206.179688 273.351562 203.945312 C 274.902344 201.589844 276.4375 199.238281 277.90625 196.828125 C 280.789062 192.085938 282.996094 187.015625 285.332031 181.980469 C 286.464844 179.539062 287.046875 176.855469 287.851562 174.289062 C 288.554688 172.042969 289.359375 169.828125 290.054688 167.578125 C 290.796875 165.195312 291.714844 162.734375 292.09375 160.265625 C 292.5 157.621094 292.910156 154.984375 293.296875 152.339844 C 293.53125 150.734375 293.773438 149.132812 294 147.527344 C 294.179688 146.265625 293.972656 144.925781 293.910156 143.65625 Z M 282.65625 122.636719 C 282.671875 122.660156 282.6875 122.683594 282.707031 122.710938 C 282.578125 122.601562 282.410156 122.269531 282.65625 122.636719 Z M 249.289062 117.320312 C 250.136719 116.949219 250.984375 116.578125 251.832031 116.207031 C 252.144531 116.070312 252.457031 115.933594 252.769531 115.796875 C 252.808594 115.777344 252.824219 115.777344 252.855469 115.765625 C 252.84375 115.765625 252.835938 115.769531 252.820312 115.769531 C 252.832031 115.769531 252.851562 115.761719 252.863281 115.761719 C 253.113281 115.671875 253.179688 115.703125 253.082031 115.742188 C 253.476562 115.671875 253.949219 115.449219 254.269531 115.359375 C 255.164062 115.109375 256.058594 114.859375 256.953125 114.609375 C 257.671875 114.40625 258.417969 114.238281 259.128906 114 C 259.164062 113.988281 259.171875 113.988281 259.203125 113.980469 C 259.152344 113.976562 259.105469 113.980469 259.039062 113.960938 C 259.097656 113.976562 259.171875 113.972656 259.246094 113.972656 C 259.398438 113.9375 259.433594 113.957031 259.367188 113.976562 C 259.472656 113.96875 259.574219 113.960938 259.660156 113.960938 C 261.113281 113.953125 262.566406 113.949219 264.015625 113.945312 C 263.566406 115.03125 263.117188 116.121094 262.664062 117.207031 C 262.535156 117.515625 262.40625 117.828125 262.277344 118.140625 C 262.265625 118.164062 262.253906 118.183594 262.234375 118.230469 C 261.339844 120.101562 260.511719 122.003906 259.648438 123.894531 C 258.398438 126.628906 256.878906 129.234375 255.714844 132.007812 C 254.261719 135.460938 252.84375 138.914062 251.484375 142.402344 C 251.320312 142.828125 251.152344 143.253906 250.988281 143.675781 C 250.960938 143.75 250.84375 144.039062 250.78125 144.203125 C 250.71875 144.335938 250.644531 144.503906 250.621094 144.550781 C 250.410156 145.011719 250.199219 145.46875 249.988281 145.929688 C 249.285156 147.460938 248.578125 148.992188 247.878906 150.527344 C 246.398438 153.761719 244.933594 156.980469 243.621094 160.28125 C 243.214844 161.304688 242.8125 162.328125 242.40625 163.347656 C 242.328125 163.546875 241.960938 164.382812 242.34375 163.527344 C 242.238281 163.757812 242.140625 163.992188 242.039062 164.222656 C 241.222656 166.109375 240.402344 167.996094 239.582031 169.882812 C 238.347656 172.726562 237.082031 175.558594 235.910156 178.433594 C 234.488281 181.925781 233.070312 185.421875 231.65625 188.921875 C 231.527344 189.242188 231.394531 189.5625 231.265625 189.886719 C 231.261719 189.898438 231.261719 189.898438 231.253906 189.910156 C 230.84375 190.765625 230.46875 191.648438 230.074219 192.515625 C 229.402344 194 228.703125 195.480469 228.074219 196.988281 C 227.273438 198.914062 226.472656 200.84375 225.675781 202.773438 C 225.671875 202.785156 225.664062 202.792969 225.660156 202.800781 C 225.664062 202.796875 225.664062 202.796875 225.664062 202.796875 C 225.660156 202.800781 225.660156 202.804688 225.65625 202.8125 C 225.621094 202.890625 225.585938 202.960938 225.558594 203.015625 C 225.460938 203.207031 225.367188 203.40625 225.269531 203.597656 C 224.746094 204.667969 224.21875 205.738281 223.691406 206.808594 C 222.265625 209.710938 220.90625 212.644531 219.613281 215.605469 C 218.820312 217.421875 218.105469 219.273438 217.355469 221.109375 C 217.199219 221.488281 217.042969 221.871094 216.886719 222.253906 C 216.882812 222.261719 216.882812 222.265625 216.878906 222.273438 C 216.449219 223.015625 216.144531 223.863281 215.785156 224.640625 C 214.195312 228.085938 212.820312 231.546875 211.476562 235.097656 C 210.953125 236.472656 210.421875 237.84375 209.894531 239.214844 C 209.53125 240.15625 209.152344 241.09375 208.804688 242.039062 C 208.632812 242.339844 208.496094 242.671875 208.347656 242.980469 C 208.082031 243.523438 207.84375 244.066406 207.585938 244.605469 C 208.449219 241.996094 209.417969 239.429688 210.378906 236.847656 C 210.820312 235.667969 211.269531 234.488281 211.710938 233.304688 C 212.058594 232.378906 212.410156 231.457031 212.757812 230.53125 C 212.792969 230.4375 212.835938 230.339844 212.875 230.242188 C 212.878906 230.21875 212.894531 230.175781 212.921875 230.105469 C 212.9375 230.058594 212.957031 230.011719 212.96875 229.964844 C 212.960938 230 212.957031 230.011719 212.949219 230.039062 C 212.957031 230.011719 212.960938 230 212.976562 229.96875 C 214.246094 227.160156 215.578125 224.421875 216.441406 221.464844 C 217.355469 218.34375 218.359375 215.359375 219.507812 212.320312 C 220.546875 209.574219 221.757812 206.832031 222.605469 204.023438 C 222.738281 203.742188 222.863281 203.453125 222.992188 203.167969 C 223.414062 202.226562 223.839844 201.289062 224.265625 200.347656 C 224.785156 199.195312 225.328125 198.054688 225.773438 196.871094 C 226.886719 193.902344 227.980469 190.96875 228.898438 187.9375 C 229.183594 187 229.46875 186.066406 229.75 185.128906 C 229.800781 184.972656 229.867188 184.792969 229.917969 184.617188 C 229.863281 184.753906 229.804688 184.789062 229.960938 184.445312 C 229.960938 184.445312 229.960938 184.441406 229.960938 184.4375 C 229.960938 184.433594 229.964844 184.425781 229.96875 184.417969 C 229.96875 184.421875 229.964844 184.429688 229.964844 184.433594 C 230.75 182.699219 231.515625 180.960938 232.292969 179.222656 C 233.421875 176.699219 234.082031 173.996094 235.03125 171.402344 C 236.011719 168.730469 237.144531 166.109375 238.183594 163.460938 C 238.65625 162.257812 239.097656 161.070312 239.527344 159.878906 C 239.601562 159.71875 239.679688 159.5625 239.75 159.398438 C 240.785156 157.078125 241.691406 154.65625 242.558594 152.269531 C 243.101562 150.773438 243.597656 149.261719 244.113281 147.761719 C 244.324219 147.15625 244.605469 146.535156 244.753906 145.910156 C 244.753906 145.902344 244.753906 145.902344 244.757812 145.894531 C 244.84375 145.703125 244.929688 145.507812 245.015625 145.316406 C 246.148438 142.804688 247.34375 140.324219 248.289062 137.734375 C 249.253906 135.097656 250.210938 132.460938 251.128906 129.804688 C 251.566406 128.539062 252.003906 127.273438 252.441406 126.003906 C 253.164062 123.910156 249.9375 123.097656 249.160156 125.101562 C 248.582031 126.582031 248.007812 128.066406 247.429688 129.546875 C 247.191406 130.15625 246.910156 130.773438 246.707031 131.398438 C 246.703125 131.410156 246.699219 131.410156 246.695312 131.421875 C 246.542969 131.726562 246.402344 132.039062 246.257812 132.347656 C 244.855469 135.300781 243.527344 138.203125 242.367188 141.257812 C 241.242188 144.222656 240.160156 147.203125 239.082031 150.1875 C 238.207031 152.597656 237.691406 155.132812 236.851562 157.554688 C 236.820312 157.632812 236.789062 157.710938 236.761719 157.789062 C 235.933594 159.121094 235.378906 160.71875 234.707031 162.132812 C 233.519531 164.648438 232.550781 167.234375 231.542969 169.828125 C 231.429688 170.113281 231.316406 170.398438 231.210938 170.683594 C 231.222656 170.664062 231.226562 170.652344 231.242188 170.632812 C 231.21875 170.667969 231.207031 170.707031 231.183594 170.742188 C 231.15625 170.8125 231.121094 170.871094 231.09375 170.917969 C 230.878906 171.3125 230.699219 171.746094 230.507812 172.140625 C 229.765625 173.671875 229.019531 175.203125 228.277344 176.738281 C 227.214844 178.929688 226.214844 181.152344 225.121094 183.324219 C 224.027344 185.496094 222.847656 187.628906 221.714844 189.78125 C 220.492188 192.105469 219.363281 194.503906 217.96875 196.730469 C 216.523438 199.03125 215.046875 201.238281 213.933594 203.714844 C 212.796875 206.25 211.65625 208.671875 210.300781 211.089844 C 208.914062 213.554688 207.570312 216.03125 206.238281 218.523438 C 204.960938 220.921875 203.480469 223.160156 202.003906 225.449219 C 200.585938 227.648438 199.65625 230.148438 198.570312 232.523438 C 198.015625 233.730469 197.398438 234.921875 196.753906 236.105469 C 196.964844 235.542969 197.171875 234.976562 197.378906 234.414062 C 197.457031 234.207031 197.5625 233.988281 197.617188 233.769531 C 198.761719 231.195312 199.875 228.613281 201.011719 226.035156 C 202.265625 223.199219 203.496094 220.355469 204.6875 217.492188 C 205.011719 216.710938 205.335938 215.933594 205.660156 215.152344 C 205.683594 215.105469 205.742188 214.960938 205.78125 214.871094 C 205.820312 214.78125 205.859375 214.695312 205.878906 214.65625 C 206.621094 212.964844 207.363281 211.273438 208.105469 209.582031 C 209.144531 207.226562 210.003906 204.789062 211.027344 202.429688 C 211.035156 202.425781 211.105469 202.296875 211.203125 202.125 C 211.398438 201.78125 211.582031 201.429688 211.773438 201.082031 C 212.257812 200.203125 212.742188 199.320312 213.222656 198.441406 C 213.777344 197.429688 214.34375 196.472656 214.710938 195.378906 C 215.308594 193.621094 215.902344 191.867188 216.5 190.109375 C 216.523438 190.035156 216.558594 189.953125 216.589844 189.875 C 216.582031 189.855469 216.597656 189.761719 216.675781 189.589844 C 216.675781 189.585938 216.679688 189.582031 216.679688 189.582031 C 216.679688 189.574219 216.683594 189.566406 216.6875 189.558594 C 216.683594 189.566406 216.683594 189.566406 216.683594 189.574219 C 217.015625 188.824219 217.34375 188.074219 217.671875 187.324219 C 218.894531 184.550781 220.164062 181.808594 221.460938 179.070312 C 222.664062 176.527344 223.765625 173.941406 224.929688 171.382812 C 225.988281 169.046875 227.242188 166.789062 228.230469 164.421875 C 230.453125 159.105469 232.730469 153.8125 234.683594 148.390625 C 236.597656 143.085938 239.003906 137.984375 241.015625 132.71875 C 242.683594 128.351562 244.0625 123.878906 245.273438 119.367188 C 246.574219 118.628906 247.894531 117.929688 249.289062 117.320312 Z M 195.871094 268.289062 C 195.90625 268.125 196.089844 267.832031 195.894531 268.234375 C 195.886719 268.253906 195.878906 268.269531 195.871094 268.289062 Z M 196.171875 275.65625 C 196.171875 275.652344 196.171875 275.652344 196.175781 275.648438 C 196.175781 275.6875 196.171875 275.726562 196.160156 275.761719 C 196.171875 275.722656 196.171875 275.6875 196.171875 275.65625 Z M 196.160156 275.761719 C 196.15625 275.785156 196.148438 275.804688 196.144531 275.820312 C 196.148438 275.800781 196.15625 275.78125 196.160156 275.761719 Z M 212.554688 222.621094 C 212.570312 222.480469 212.800781 222.082031 212.589844 222.542969 C 212.578125 222.570312 212.566406 222.59375 212.554688 222.621094 Z M 246.863281 138.996094 C 246.78125 139.246094 246.796875 139.167969 246.863281 138.996094 Z M 244.46875 138.296875 C 244.46875 138.296875 244.46875 138.296875 244.46875 138.300781 C 244.46875 138.296875 244.46875 138.296875 244.46875 138.296875 Z M 236.855469 165.527344 C 236.707031 165.972656 236.773438 165.730469 236.855469 165.527344 Z M 182.101562 264.253906 C 182.097656 264.261719 182.097656 264.269531 182.09375 264.277344 C 182.046875 264.347656 182.007812 264.425781 181.972656 264.507812 C 181.886719 264.632812 181.847656 264.601562 182.101562 264.253906 Z M 187.082031 259.257812 C 186.984375 259.542969 187.007812 259.449219 187.082031 259.257812 Z M 192.25 246.449219 C 192.253906 246.445312 192.253906 246.441406 192.257812 246.4375 C 192.25 246.472656 192.238281 246.503906 192.230469 246.535156 C 192.238281 246.507812 192.246094 246.476562 192.25 246.449219 Z M 241.703125 125.742188 C 241.691406 125.78125 241.671875 125.832031 241.652344 125.882812 C 241.667969 125.835938 241.6875 125.789062 241.703125 125.742188 Z M 196.160156 175.441406 C 196.582031 176.253906 197.34375 176.421875 198.011719 176.203125 C 198.4375 176.136719 198.84375 175.894531 199.132812 175.410156 C 201.726562 171.039062 204.109375 166.601562 206.546875 162.144531 C 207.386719 160.609375 208.191406 159.046875 209.070312 157.53125 C 209.570312 156.667969 210.238281 155.898438 210.839844 155.105469 C 212.53125 152.875 214.1875 150.632812 215.824219 148.359375 C 216.285156 147.71875 216.75 147.078125 217.207031 146.433594 C 217.296875 146.304688 217.40625 146.179688 217.488281 146.042969 C 217.460938 146.089844 217.445312 146.117188 217.421875 146.152344 C 217.460938 146.09375 217.5 146.035156 217.535156 145.992188 C 218.601562 144.660156 219.664062 143.324219 220.726562 141.988281 C 222.410156 139.871094 223.941406 137.640625 225.519531 135.445312 C 225.578125 135.359375 225.636719 135.277344 225.699219 135.195312 C 225.726562 135.171875 225.746094 135.15625 225.796875 135.117188 C 226.410156 134.632812 226.953125 134.019531 227.523438 133.484375 C 228.566406 132.5 229.605469 131.503906 230.65625 130.527344 C 231.652344 129.597656 232.65625 128.683594 233.660156 127.761719 C 234.238281 127.222656 234.835938 126.699219 235.40625 126.152344 C 235.441406 126.117188 235.484375 126.082031 235.527344 126.046875 C 235.554688 126.003906 235.613281 125.9375 235.714844 125.863281 C 235.722656 125.855469 235.734375 125.847656 235.742188 125.84375 C 235.746094 125.835938 235.753906 125.832031 235.757812 125.824219 C 235.757812 125.828125 235.753906 125.832031 235.75 125.835938 C 236.875 124.992188 237.976562 124.113281 239.101562 123.269531 C 238.410156 124.945312 237.726562 126.625 237.066406 128.316406 C 236.746094 129.140625 236.421875 129.964844 236.105469 130.789062 C 236.097656 130.816406 236.089844 130.824219 236.078125 130.847656 C 236.09375 130.828125 236.097656 130.816406 236.117188 130.789062 C 236.09375 130.820312 236.078125 130.859375 236.058594 130.890625 C 236.007812 131.007812 235.964844 131.074219 235.953125 131.082031 C 235.910156 131.167969 235.871094 131.257812 235.832031 131.335938 C 234.945312 133.015625 234.0625 134.699219 233.175781 136.378906 C 231.949219 138.714844 230.789062 141.148438 229.777344 143.585938 C 229.101562 145.210938 228.4375 146.84375 227.765625 148.472656 C 227.628906 148.804688 227.492188 149.136719 227.355469 149.472656 C 227.347656 149.484375 227.347656 149.492188 227.339844 149.503906 C 227.34375 149.5 227.34375 149.5 227.34375 149.5 C 227.34375 149.5 227.339844 149.5 227.339844 149.503906 C 227.199219 149.835938 227.160156 149.8125 227.234375 149.664062 C 226.914062 150.144531 226.683594 150.777344 226.429688 151.269531 C 224.96875 154.109375 223.542969 156.953125 222.140625 159.820312 C 220.851562 162.460938 219.457031 165.046875 218.105469 167.65625 C 216.945312 169.890625 215.949219 172.242188 214.664062 174.40625 C 211.492188 179.734375 208.511719 185.109375 205.746094 190.65625 C 203.332031 195.484375 200.675781 200.214844 198.082031 204.949219 C 196.582031 207.6875 195.085938 210.398438 193.449219 213.054688 C 192.316406 214.898438 191.335938 216.753906 190.390625 218.65625 C 190.730469 217.917969 191.070312 217.175781 191.414062 216.433594 C 192.355469 214.390625 193.65625 212.484375 194.792969 210.542969 C 195.925781 208.609375 196.699219 206.441406 197.597656 204.390625 C 198.503906 202.332031 199.496094 200.3125 200.457031 198.28125 C 201.414062 196.25 202.496094 194.277344 203.535156 192.285156 C 204.574219 190.296875 205.464844 188.238281 206.398438 186.199219 C 207.332031 184.164062 208.335938 182.164062 209.324219 180.15625 C 210.328125 178.109375 211.160156 176.003906 212.027344 173.898438 C 212.269531 173.308594 212.515625 172.722656 212.757812 172.132812 C 212.769531 172.097656 212.773438 172.089844 212.78125 172.0625 C 212.800781 172.03125 212.824219 171.988281 212.863281 171.917969 C 213.546875 170.644531 214.160156 169.328125 214.804688 168.039062 C 215.808594 166.035156 216.679688 164 217.5625 161.9375 C 219.324219 157.816406 221.074219 153.699219 222.597656 149.484375 C 222.972656 148.441406 223.351562 147.402344 223.726562 146.359375 C 224.015625 145.5625 223.464844 144.660156 222.742188 144.355469 C 221.90625 144 221.132812 144.359375 220.617188 145.050781 C 219.304688 146.808594 217.933594 148.535156 216.675781 150.335938 C 215.5 152.023438 214.585938 153.949219 213.566406 155.738281 C 211.683594 159.042969 209.367188 162.128906 207.335938 165.351562 C 205.285156 168.601562 203.546875 172 201.652344 175.339844 C 199.5625 179.019531 197.335938 182.554688 195.097656 186.144531 C 190.761719 193.101562 186.585938 200.15625 182.558594 207.296875 C 178.652344 214.234375 174.6875 221.152344 170.660156 228.019531 C 170.082031 229.003906 169.480469 229.972656 168.878906 230.945312 C 169.238281 229.992188 169.597656 229.042969 169.957031 228.09375 C 170.046875 227.851562 170.15625 227.605469 170.238281 227.355469 C 170.253906 227.332031 170.261719 227.316406 170.28125 227.28125 C 171.917969 224.332031 173.355469 221.273438 174.714844 218.1875 C 176.121094 214.984375 177.429688 211.75 178.726562 208.503906 C 178.765625 208.410156 178.933594 208.046875 178.945312 208.003906 C 178.996094 207.910156 179.042969 207.820312 179.058594 207.792969 C 179.523438 206.855469 179.988281 205.917969 180.457031 204.980469 C 181.097656 203.691406 181.8125 202.425781 182.285156 201.0625 C 182.945312 199.152344 183.652344 197.25 184.265625 195.324219 C 184.277344 195.292969 184.28125 195.285156 184.292969 195.261719 C 184.269531 195.292969 184.261719 195.316406 184.230469 195.355469 C 184.257812 195.316406 184.277344 195.273438 184.304688 195.230469 C 184.363281 195.074219 184.398438 195.035156 184.382812 195.09375 C 184.476562 194.921875 184.558594 194.738281 184.648438 194.574219 C 185.167969 193.601562 185.6875 192.625 186.207031 191.652344 C 186.855469 190.4375 187.539062 189.28125 187.953125 187.964844 C 188.550781 186.0625 189.097656 184.136719 189.75 182.25 C 190.667969 179.605469 192.011719 177.117188 192.898438 174.457031 C 193.265625 173.359375 193.601562 172.265625 193.949219 171.175781 C 194.691406 172.59375 195.417969 174.023438 196.160156 175.441406 Z M 188.652344 161.996094 C 189.382812 163.035156 190.046875 164.121094 190.683594 165.222656 C 190.023438 166.265625 189.375 167.316406 188.765625 168.390625 C 187.113281 171.3125 185.433594 174.140625 183.597656 176.953125 C 180.402344 181.839844 177.488281 186.898438 174.382812 191.839844 C 172.726562 194.484375 171.023438 197.089844 169.457031 199.789062 C 168.726562 201.050781 168.035156 202.308594 167.363281 203.574219 C 167.527344 203.066406 167.6875 202.5625 167.855469 202.0625 C 168.089844 201.371094 168.382812 200.667969 168.582031 199.960938 C 168.554688 200.023438 168.578125 199.890625 168.65625 199.699219 C 168.660156 199.679688 168.667969 199.660156 168.671875 199.640625 C 168.667969 199.660156 168.664062 199.671875 168.660156 199.6875 C 168.671875 199.664062 168.679688 199.644531 168.6875 199.621094 C 168.894531 199.167969 169.097656 198.714844 169.300781 198.261719 C 170.867188 194.792969 172.355469 191.308594 173.820312 187.792969 C 173.914062 187.570312 174.007812 187.347656 174.101562 187.121094 C 173.875 187.664062 174 187.367188 174.171875 186.984375 C 174.605469 186.003906 175.039062 185.023438 175.476562 184.042969 C 176.050781 182.746094 176.632812 181.449219 177.1875 180.140625 C 178.691406 176.609375 180.117188 173.078125 181.46875 169.480469 C 182.496094 166.742188 183.136719 163.878906 184.003906 161.085938 C 184.417969 159.75 184.882812 158.417969 185.296875 157.078125 C 186.371094 158.742188 187.5 160.359375 188.652344 161.996094 Z M 163.21875 205.179688 C 163.21875 205.167969 163.226562 205.144531 163.234375 205.121094 C 163.230469 205.140625 163.21875 205.160156 163.21875 205.179688 Z M 163.28125 205.015625 C 163.289062 204.996094 163.296875 204.976562 163.308594 204.957031 C 163.296875 204.976562 163.289062 204.996094 163.28125 205.015625 Z M 163.324219 204.917969 C 163.371094 204.824219 163.398438 204.773438 163.324219 204.917969 Z M 173.683594 140.277344 C 173.6875 140.277344 173.6875 140.277344 173.6875 140.277344 C 173.816406 140.472656 173.953125 140.664062 174.085938 140.855469 C 175.734375 143.238281 177.359375 145.613281 179.144531 147.898438 C 179.863281 148.816406 180.601562 149.730469 181.316406 150.65625 C 178.300781 155.5625 175.289062 160.480469 172.570312 165.550781 C 171.027344 168.421875 169.722656 171.414062 168.175781 174.285156 C 166.347656 177.667969 164.507812 181.050781 162.660156 184.425781 C 161.160156 187.164062 159.460938 189.792969 158.203125 192.652344 C 157.457031 194.355469 156.785156 196.128906 155.945312 197.789062 C 155.003906 199.648438 153.871094 201.429688 152.839844 203.238281 C 151.34375 205.863281 149.792969 208.535156 148.59375 211.3125 C 147.78125 213.203125 147.035156 215.140625 146.144531 216.992188 C 145.667969 217.980469 145.132812 218.945312 144.589844 219.90625 C 145.796875 216.980469 146.917969 214.035156 147.90625 211.011719 C 148.585938 208.9375 149.167969 206.832031 149.800781 204.742188 C 150.351562 202.925781 151.117188 201.160156 151.789062 199.386719 C 153.039062 196.078125 154.292969 192.773438 155.585938 189.488281 C 156.28125 187.71875 157.0625 185.964844 157.652344 184.15625 C 158.324219 182.085938 158.957031 179.992188 159.667969 177.933594 C 160.367188 175.914062 161.148438 173.921875 161.890625 171.921875 C 162.550781 170.132812 162.925781 168.21875 163.40625 166.378906 C 164.304688 162.960938 165.722656 159.714844 166.761719 156.335938 C 167.316406 154.527344 167.8125 152.683594 168.449219 150.902344 C 169.199219 148.816406 170.085938 146.765625 170.753906 144.65625 C 171.351562 142.777344 171.859375 140.871094 172.324219 138.953125 C 172.730469 139.371094 173.191406 140 173.683594 140.277344 Z M 153.394531 121.121094 C 153.414062 121.132812 153.453125 121.15625 153.496094 121.179688 C 153.5625 121.226562 153.757812 121.351562 153.824219 121.40625 C 155.210938 122.519531 156.605469 123.628906 157.996094 124.742188 C 160.066406 126.398438 162.1875 128.074219 164.105469 129.898438 C 165.621094 131.339844 166.800781 133.140625 168.15625 134.75 C 167.5625 135.816406 166.957031 136.878906 166.320312 137.925781 C 165.539062 139.214844 164.644531 140.480469 164.003906 141.84375 C 163.136719 143.695312 162.351562 145.585938 161.445312 147.417969 C 160.113281 150.109375 158.367188 152.558594 157.144531 155.308594 C 155.644531 158.695312 154.066406 162.023438 152.441406 165.351562 C 151.125 168.050781 149.390625 170.515625 148.25 173.300781 C 147.796875 174.398438 147.347656 175.5 146.894531 176.597656 C 146.726562 177.011719 146.558594 177.421875 146.390625 177.835938 C 146.339844 177.953125 146.277344 178.0625 146.222656 178.148438 C 146.25 178.117188 146.273438 178.082031 146.308594 178.035156 C 145.855469 178.613281 145.5625 179.425781 145.210938 180.070312 C 144.660156 181.09375 144.105469 182.121094 143.550781 183.148438 C 142.828125 184.488281 142.285156 185.910156 141.695312 187.316406 C 141.28125 188.296875 140.867188 189.277344 140.453125 190.261719 C 140.441406 190.296875 140.429688 190.320312 140.417969 190.347656 C 140.421875 190.335938 140.425781 190.324219 140.429688 190.3125 C 140.375 190.375 140.335938 190.460938 140.292969 190.542969 C 140.296875 190.507812 140.339844 190.414062 140.429688 190.308594 C 140.925781 188.824219 141.4375 187.351562 141.984375 185.882812 C 143.183594 182.648438 144.457031 179.453125 145.730469 176.246094 C 146.75 173.6875 147.242188 170.910156 148.070312 168.285156 C 149.140625 164.890625 150.234375 161.535156 151.453125 158.191406 C 152.554688 155.152344 153.367188 152.050781 154.242188 148.9375 C 155.039062 146.113281 155.921875 143.3125 156.570312 140.449219 C 157.359375 136.964844 158.117188 133.476562 158.851562 129.976562 C 158.980469 129.363281 159.109375 128.75 159.238281 128.140625 C 159.691406 125.972656 156.726562 125.203125 155.957031 127.234375 C 155.371094 128.769531 154.789062 130.304688 154.207031 131.84375 C 153.957031 132.503906 153.628906 133.175781 153.4375 133.859375 C 153.289062 134.160156 153.152344 134.472656 153.007812 134.777344 C 151.644531 137.699219 150.3125 140.617188 149.050781 143.589844 C 147.800781 146.527344 146.371094 149.335938 144.921875 152.183594 C 144.34375 153.320312 143.90625 154.527344 143.429688 155.707031 C 143.03125 156.691406 142.636719 157.671875 142.242188 158.652344 C 142.136719 158.914062 142.027344 159.175781 141.925781 159.441406 C 141.921875 159.441406 141.921875 159.441406 141.921875 159.441406 C 141.492188 160.007812 141.230469 160.820312 140.910156 161.453125 C 140.429688 162.414062 139.945312 163.375 139.464844 164.335938 C 138.957031 165.347656 138.429688 166.339844 137.890625 167.335938 C 137.089844 168.816406 136.277344 170.292969 135.472656 171.773438 C 136.203125 169.679688 136.820312 167.535156 137.457031 165.417969 C 138.535156 161.84375 139.707031 158.363281 140.984375 154.855469 C 141.988281 152.101562 142.914062 149.320312 143.925781 146.570312 C 144.582031 144.777344 145.371094 142.992188 145.914062 141.164062 C 146.414062 139.464844 146.691406 137.667969 147.074219 135.9375 C 147.699219 133.109375 149.074219 130.519531 149.78125 127.71875 C 150.433594 125.148438 151 122.558594 151.550781 119.964844 C 152.164062 120.351562 152.773438 120.746094 153.394531 121.121094 Z M 129.324219 184.636719 C 129.320312 184.644531 129.316406 184.648438 129.316406 184.65625 C 129.261719 184.722656 129.214844 184.804688 129.175781 184.890625 C 129.121094 184.941406 129.132812 184.863281 129.324219 184.636719 Z M 125.117188 199.027344 C 125.125 199.011719 125.132812 198.992188 125.140625 198.976562 C 125.132812 199 125.121094 199.023438 125.109375 199.046875 C 125.109375 199.039062 125.113281 199.035156 125.117188 199.027344 Z M 147.632812 117.644531 C 145.722656 121.761719 143.8125 125.882812 141.808594 129.960938 C 139.234375 135.207031 136.335938 140.253906 133.335938 145.265625 C 130.671875 149.71875 128.101562 154.214844 125.511719 158.707031 C 125.734375 158.15625 125.933594 157.597656 126.132812 157.011719 C 126.609375 155.609375 127.3125 154.121094 127.640625 152.660156 C 127.605469 152.75 127.605469 152.652344 127.699219 152.4375 C 127.703125 152.410156 127.714844 152.382812 127.71875 152.355469 C 127.714844 152.382812 127.710938 152.398438 127.707031 152.421875 C 127.714844 152.402344 127.71875 152.386719 127.726562 152.371094 C 127.894531 152.015625 128.054688 151.660156 128.21875 151.304688 C 128.648438 150.363281 129.082031 149.425781 129.511719 148.488281 C 130.738281 145.824219 132.066406 143.207031 133.292969 140.546875 C 134.382812 138.179688 135.160156 135.640625 136.082031 133.203125 C 137.140625 130.398438 138.191406 127.59375 139.320312 124.816406 C 139.851562 123.511719 140.523438 122.191406 140.929688 120.84375 C 141.425781 119.199219 141.671875 117.441406 142.039062 115.765625 C 142.105469 115.460938 142.171875 115.160156 142.238281 114.855469 C 142.746094 115.113281 143.261719 115.359375 143.769531 115.609375 C 145.09375 116.273438 146.375 116.941406 147.632812 117.644531 Z M 128.679688 112.597656 C 130.167969 112.578125 131.722656 112.863281 133.207031 112.992188 C 133.898438 113.050781 134.59375 113.132812 135.285156 113.175781 C 135.488281 113.257812 135.761719 113.28125 135.964844 113.324219 C 136.828125 113.519531 137.6875 113.714844 138.546875 113.910156 C 136.03125 117.484375 133.476562 121.027344 130.949219 124.59375 C 129.574219 126.539062 128.238281 128.511719 126.878906 130.472656 C 125.539062 132.402344 124.015625 134.28125 122.824219 136.304688 C 122.746094 136.394531 122.667969 136.488281 122.59375 136.578125 C 122.125 137.128906 121.660156 137.679688 121.191406 138.234375 C 120.269531 139.320312 119.328125 140.398438 118.421875 141.5 C 116.859375 143.410156 115.558594 145.574219 114.15625 147.605469 C 113.867188 148.019531 113.582031 148.4375 113.292969 148.851562 C 116.6875 140.910156 119.96875 132.945312 122.84375 124.796875 C 124.261719 120.789062 125.613281 116.792969 126.886719 112.746094 C 127.488281 112.667969 128.089844 112.605469 128.679688 112.597656 Z M 115.855469 115.03125 C 115.867188 115.027344 115.867188 115.027344 115.855469 115.03125 Z M 115.683594 115.136719 C 115.882812 115.101562 116.097656 115.019531 116.277344 114.96875 C 118.035156 114.488281 119.792969 114.007812 121.546875 113.527344 C 121.554688 113.523438 121.566406 113.523438 121.570312 113.523438 C 121.164062 114.066406 120.753906 114.605469 120.351562 115.152344 C 120.351562 115.15625 120.351562 115.15625 120.347656 115.15625 C 120.335938 115.171875 120.332031 115.175781 120.316406 115.191406 C 119.96875 115.582031 119.648438 115.996094 119.3125 116.398438 C 118.457031 117.429688 117.601562 118.460938 116.746094 119.496094 C 114.351562 122.378906 112.5 125.761719 110.3125 128.8125 C 108.886719 130.800781 107.339844 132.730469 105.898438 134.722656 C 106.460938 133.351562 107.023438 131.976562 107.585938 130.601562 C 107.667969 130.398438 107.753906 130.195312 107.835938 129.992188 C 107.851562 129.957031 107.878906 129.90625 107.921875 129.816406 C 108.328125 128.96875 108.71875 128.117188 109.117188 127.265625 C 109.8125 125.785156 110.664062 124.324219 111.027344 122.722656 C 111.464844 120.800781 111.898438 118.878906 112.335938 116.957031 C 112.828125 116.703125 113.316406 116.445312 113.792969 116.183594 C 114.421875 115.835938 115.078125 115.519531 115.683594 115.136719 Z M 95.6875 140.179688 C 95.753906 140.015625 95.773438 139.734375 95.804688 139.617188 C 96.023438 138.742188 96.242188 137.867188 96.460938 136.992188 C 96.679688 136.117188 96.894531 135.242188 97.113281 134.371094 C 97.175781 134.125 97.277344 133.859375 97.304688 133.609375 C 97.304688 133.59375 97.304688 133.589844 97.304688 133.578125 C 98.117188 132.171875 98.75 130.617188 99.464844 129.160156 C 99.613281 128.851562 100.328125 127.859375 100.273438 127.507812 C 100.457031 127.296875 100.632812 127.082031 100.808594 126.875 C 101.964844 125.507812 103.171875 124.167969 104.28125 122.765625 C 104.324219 122.710938 104.40625 122.636719 104.476562 122.5625 C 104.355469 122.671875 104.226562 122.679688 104.578125 122.410156 C 105.238281 121.902344 105.898438 121.394531 106.558594 120.886719 C 107.132812 120.449219 107.695312 119.980469 108.265625 119.527344 C 108.148438 120.050781 108.03125 120.570312 107.910156 121.09375 C 107.824219 121.476562 107.726562 121.855469 107.652344 122.238281 C 107.617188 122.421875 107.597656 122.507812 107.589844 122.542969 C 107.308594 123.15625 107.015625 123.765625 106.730469 124.378906 C 105.222656 127.59375 103.84375 130.824219 102.5 134.109375 C 102.390625 134.371094 102.285156 134.628906 102.179688 134.890625 C 102.171875 134.902344 102.171875 134.90625 102.164062 134.921875 C 101.789062 135.707031 101.449219 136.507812 101.09375 137.296875 C 100.503906 138.601562 99.96875 139.949219 99.300781 141.214844 C 98.382812 142.957031 97.402344 144.664062 96.453125 146.386719 C 96.15625 146.921875 95.921875 147.492188 95.703125 148.066406 C 95.703125 148.054688 95.703125 148.042969 95.699219 148.03125 C 95.445312 145.425781 95.914062 142.777344 95.6875 140.179688 Z M 96.96875 160.867188 C 96.972656 160.929688 96.980469 161.011719 96.984375 161.132812 C 96.980469 161.042969 96.972656 160.953125 96.96875 160.867188 Z M 96.964844 160.839844 C 96.941406 160.730469 96.949219 160.710938 96.964844 160.839844 Z M 97.300781 161.914062 C 97.210938 161.628906 97.136719 161.328125 97.03125 161.050781 C 97 160.964844 96.976562 160.894531 96.964844 160.84375 C 96.894531 159.382812 96.667969 157.914062 96.527344 156.464844 C 96.515625 156.355469 96.507812 156.246094 96.496094 156.136719 C 96.574219 155.964844 96.640625 155.792969 96.722656 155.621094 C 97.507812 153.933594 98.753906 152.382812 99.769531 150.824219 C 101.792969 147.714844 103.757812 144.566406 105.65625 141.378906 C 106.625 139.761719 107.566406 138.230469 108.691406 136.726562 C 109.828125 135.210938 110.972656 133.707031 112.074219 132.167969 C 113.214844 130.578125 114.40625 129.011719 115.484375 127.378906 C 116.167969 126.347656 116.84375 125.308594 117.523438 124.273438 C 117.851562 123.773438 118.179688 123.277344 118.503906 122.777344 C 118.722656 122.449219 119.105469 121.976562 118.65625 122.492188 C 119.488281 121.535156 120.296875 120.558594 121.09375 119.578125 C 119.246094 125.027344 117.277344 130.4375 115.132812 135.777344 C 114.300781 137.847656 113.40625 139.898438 112.546875 141.960938 C 112.535156 141.996094 112.53125 142.003906 112.523438 142.023438 C 112.511719 142.050781 112.503906 142.066406 112.488281 142.101562 C 112.222656 142.730469 111.957031 143.359375 111.691406 143.988281 C 111.152344 145.261719 110.613281 146.539062 110.070312 147.8125 C 108.332031 151.894531 106.519531 155.933594 104.726562 159.988281 C 103.722656 162.257812 102.691406 164.558594 101.84375 166.886719 C 101.296875 168.382812 100.875 169.9375 100.453125 171.484375 C 99.648438 169.195312 98.867188 166.894531 98.136719 164.574219 C 97.859375 163.6875 97.582031 162.800781 97.300781 161.914062 Z M 106.144531 187.355469 C 106.117188 187.316406 106.09375 187.269531 106.066406 187.230469 C 106.101562 187.28125 106.117188 187.3125 106.140625 187.351562 C 106.128906 187.316406 106.113281 187.292969 106.097656 187.242188 C 105.988281 186.914062 105.871094 186.589844 105.757812 186.265625 C 105.445312 185.371094 105.132812 184.480469 104.820312 183.585938 C 104.46875 182.574219 104.128906 181.554688 103.75 180.550781 C 103.164062 178.972656 102.582031 177.398438 102.003906 175.820312 C 102.394531 175.730469 102.742188 175.476562 102.945312 175 C 103.003906 174.867188 103.058594 174.730469 103.117188 174.59375 C 103.121094 174.589844 103.121094 174.585938 103.121094 174.582031 C 104.015625 172.460938 104.832031 170.277344 105.863281 168.226562 C 106.925781 166.101562 108.316406 164.128906 109.472656 162.050781 C 110.625 159.972656 111.546875 157.753906 112.730469 155.691406 C 113.902344 153.648438 115.417969 151.75 116.753906 149.8125 C 118.097656 147.863281 119.480469 145.941406 120.792969 143.972656 C 120.832031 143.914062 120.847656 143.886719 120.867188 143.851562 C 120.894531 143.824219 120.914062 143.804688 120.953125 143.761719 C 121.382812 143.269531 121.796875 142.761719 122.21875 142.265625 C 123.203125 141.105469 124.191406 139.957031 125.164062 138.789062 C 126.730469 136.90625 128.027344 134.765625 129.421875 132.757812 C 130.761719 130.828125 132.101562 128.894531 133.4375 126.960938 C 134.492188 125.4375 135.574219 123.933594 136.652344 122.425781 C 135.652344 124.886719 134.671875 127.347656 133.730469 129.835938 C 132.648438 132.699219 131.574219 135.566406 130.5 138.433594 C 130.460938 138.542969 130.414062 138.652344 130.371094 138.765625 C 130.378906 138.746094 130.371094 138.773438 130.335938 138.855469 C 130.3125 138.917969 130.289062 138.980469 130.269531 139.042969 C 130.289062 138.980469 130.304688 138.9375 130.320312 138.894531 C 130.296875 138.941406 130.28125 138.984375 130.242188 139.058594 C 129.855469 139.847656 129.484375 140.644531 129.101562 141.4375 C 128.53125 142.621094 127.953125 143.796875 127.398438 144.988281 C 126.125 147.714844 124.792969 150.410156 123.824219 153.257812 C 123.335938 154.6875 122.695312 156.152344 122.316406 157.621094 C 122.351562 157.53125 122.351562 157.574219 122.292969 157.707031 C 122.277344 157.773438 122.253906 157.84375 122.238281 157.910156 C 122.253906 157.835938 122.269531 157.78125 122.28125 157.730469 C 122.261719 157.777344 122.238281 157.828125 122.203125 157.890625 C 122.007812 158.230469 121.828125 158.582031 121.640625 158.925781 C 121.148438 159.839844 120.652344 160.75 120.160156 161.660156 C 118.703125 164.347656 117.617188 167.199219 116.519531 170.050781 C 116.0625 171.230469 115.6875 172.445312 115.28125 173.640625 C 114.984375 174.507812 114.691406 175.375 114.394531 176.242188 C 114.335938 176.410156 114.253906 176.585938 114.21875 176.757812 C 114.253906 176.585938 114.277344 176.484375 114.292969 176.433594 C 114.269531 176.515625 114.214844 176.703125 114.136719 176.855469 C 112.714844 179.644531 111.304688 182.363281 110.175781 185.28125 C 109.433594 187.191406 108.730469 189.109375 108.042969 191.035156 C 107.457031 189.867188 106.929688 188.546875 106.207031 187.457031 C 106.261719 187.570312 106.21875 187.535156 106.144531 187.355469 Z M 110.242188 195.316406 C 112.402344 190.316406 114.652344 185.378906 117.082031 180.5 C 118.527344 177.597656 120.230469 174.964844 121.988281 172.234375 C 123.410156 170.027344 124.386719 167.539062 125.660156 165.242188 C 128.699219 159.753906 131.867188 154.304688 135.105469 148.925781 C 138.019531 144.078125 141.015625 139.238281 143.527344 134.164062 C 143.949219 133.3125 144.359375 132.460938 144.773438 131.605469 C 144.542969 132.246094 144.320312 132.886719 144.128906 133.535156 C 143.648438 135.175781 143.378906 136.90625 143.007812 138.578125 C 142.707031 139.933594 142.308594 141.132812 141.828125 142.441406 C 140.570312 145.863281 139.359375 149.296875 138.140625 152.734375 C 137.136719 155.574219 136.027344 158.367188 135.160156 161.25 C 134.105469 164.742188 133.007812 168.210938 131.875 171.679688 C 130.992188 174.398438 129.773438 177.015625 128.734375 179.683594 C 128.039062 181.464844 127.25 183.234375 126.644531 185.046875 C 126.082031 186.734375 125.691406 188.5 125.222656 190.21875 C 125.117188 190.597656 124.992188 190.976562 124.90625 191.359375 C 124.894531 191.425781 124.886719 191.460938 124.882812 191.496094 C 124.496094 192.25 124.164062 193.039062 123.808594 193.808594 C 123.128906 195.261719 122.402344 196.699219 121.808594 198.191406 C 120.488281 201.496094 119.1875 204.808594 117.867188 208.109375 C 116.375 205.773438 114.882812 203.433594 113.394531 201.09375 C 112.214844 199.242188 111.234375 197.273438 110.242188 195.316406 Z M 124.390625 218.046875 C 124.308594 217.941406 124.230469 217.839844 124.152344 217.738281 C 124.132812 217.707031 124.101562 217.65625 124.050781 217.574219 C 123.644531 216.925781 123.203125 216.296875 122.78125 215.664062 C 121.882812 214.308594 121.007812 212.941406 120.125 211.582031 C 122.734375 206.207031 125.414062 200.863281 127.800781 195.386719 C 129.070312 192.472656 130.527344 189.6875 131.996094 186.867188 C 132.589844 185.722656 133.035156 184.5 133.527344 183.3125 C 133.929688 182.339844 134.328125 181.367188 134.730469 180.398438 C 134.828125 180.160156 134.929688 179.917969 135.027344 179.679688 C 135.039062 179.664062 135.042969 179.660156 135.058594 179.636719 C 136.121094 178.152344 136.875 176.320312 137.753906 174.71875 C 138.300781 173.722656 138.839844 172.722656 139.382812 171.722656 C 140.953125 168.824219 142.472656 165.914062 143.953125 162.96875 C 145.339844 160.199219 146.457031 157.3125 147.589844 154.433594 C 147.753906 154.226562 147.851562 153.921875 147.96875 153.6875 C 148.433594 152.773438 148.898438 151.855469 149.367188 150.941406 C 149.917969 149.851562 150.511719 148.78125 150.988281 147.65625 C 151.074219 147.453125 151.164062 147.253906 151.25 147.050781 C 150.515625 149.65625 149.890625 152.308594 149.046875 154.878906 C 148.007812 158.039062 146.765625 161.117188 145.765625 164.289062 C 144.714844 167.613281 143.75 170.953125 142.796875 174.304688 C 142.042969 176.949219 140.753906 179.449219 139.796875 182.027344 C 137.425781 188.414062 135.5 194.929688 133.191406 201.339844 C 132.648438 202.855469 132.078125 204.367188 131.519531 205.878906 C 131.28125 206.523438 130.988281 207.179688 130.789062 207.84375 C 130.84375 207.710938 130.875 207.675781 130.734375 208 C 130.730469 208.003906 130.730469 208.011719 130.726562 208.015625 C 130.726562 208.023438 130.722656 208.03125 130.71875 208.039062 C 130.722656 208.03125 130.722656 208.027344 130.722656 208.023438 C 130.550781 208.421875 130.378906 208.820312 130.207031 209.21875 C 128.746094 212.589844 127.40625 215.929688 126.171875 219.390625 C 126.09375 219.605469 126.015625 219.820312 125.941406 220.039062 C 125.421875 219.375 124.90625 218.710938 124.390625 218.046875 Z M 132.3125 228.761719 C 132.265625 228.707031 132.273438 228.71875 132.3125 228.761719 Z M 133.042969 229.570312 C 132.839844 229.34375 132.640625 229.113281 132.433594 228.890625 C 132.40625 228.863281 132.402344 228.859375 132.382812 228.835938 C 131.183594 226.824219 129.703125 224.882812 128.253906 223.015625 C 128.410156 222.882812 128.546875 222.707031 128.644531 222.484375 C 129.976562 219.457031 131.300781 216.4375 132.75 213.460938 C 134.257812 210.359375 135.984375 207.367188 137.503906 204.273438 C 138.871094 201.488281 139.929688 198.582031 141.375 195.828125 C 143.125 192.496094 144.589844 189.132812 146.054688 185.660156 C 146.1875 185.339844 146.25 185.355469 146.1875 185.488281 C 146.300781 185.289062 146.390625 185.046875 146.488281 184.863281 C 147.042969 183.839844 147.597656 182.8125 148.152344 181.785156 C 148.863281 180.46875 149.488281 179.1875 150.054688 177.804688 C 150.507812 176.695312 150.960938 175.589844 151.417969 174.480469 C 151.566406 174.121094 151.714844 173.757812 151.863281 173.394531 C 151.863281 173.390625 151.867188 173.382812 151.871094 173.375 C 151.875 173.371094 151.875 173.371094 151.882812 173.367188 C 152.449219 172.847656 152.828125 171.675781 153.199219 171.011719 C 153.75 170.035156 154.296875 169.058594 154.84375 168.082031 C 156.265625 165.542969 157.496094 162.855469 158.679688 160.191406 C 159.410156 158.539062 160.066406 156.820312 160.890625 155.210938 C 161.753906 153.519531 162.804688 151.898438 163.757812 150.253906 C 165.203125 147.757812 166.046875 144.941406 167.539062 142.476562 C 167.71875 142.183594 167.882812 141.894531 168.058594 141.601562 C 167.113281 145.019531 165.683594 148.261719 164.640625 151.648438 C 164.066406 153.523438 163.542969 155.421875 162.902344 157.273438 C 162.171875 159.382812 161.304688 161.453125 160.632812 163.578125 C 160.011719 165.53125 159.578125 167.566406 159.054688 169.550781 C 158.589844 171.320312 157.871094 173.015625 157.238281 174.730469 C 156.003906 178.0625 155.089844 181.511719 153.789062 184.8125 C 152.226562 188.777344 150.6875 192.742188 149.171875 196.722656 C 147.792969 200.351562 146.488281 203.941406 145.367188 207.652344 C 144.871094 209.296875 144.34375 210.910156 143.777344 212.53125 C 143.347656 213.761719 142.914062 214.992188 142.484375 216.222656 C 142.421875 216.398438 142.300781 216.722656 142.308594 216.714844 C 142.195312 216.980469 142.082031 217.246094 141.96875 217.507812 C 141.148438 219.414062 140.15625 221.320312 139.503906 223.289062 C 138.789062 225.433594 138.398438 227.679688 137.714844 229.832031 C 137.34375 231.003906 136.863281 232.148438 136.371094 233.292969 C 135.929688 232.785156 135.476562 232.289062 135.027344 231.785156 C 134.367188 231.046875 133.703125 230.308594 133.042969 229.570312 Z M 141.21875 239.554688 C 141.296875 239.65625 141.351562 239.726562 141.21875 239.554688 Z M 141.101562 239.40625 C 141.113281 239.417969 141.132812 239.445312 141.15625 239.46875 C 141.136719 239.449219 141.121094 239.425781 141.101562 239.40625 Z M 159.746094 259.714844 C 157.914062 257.726562 156.289062 255.550781 154.328125 253.683594 C 152.214844 251.671875 150.113281 249.664062 148.078125 247.570312 C 145.984375 245.425781 144.152344 243.25 142.285156 240.898438 C 141.917969 240.433594 141.558594 239.960938 141.179688 239.503906 C 140.988281 239.246094 140.792969 238.992188 140.597656 238.738281 C 140.257812 238.289062 139.917969 237.84375 139.578125 237.394531 C 141.554688 233.300781 143.523438 229.199219 145.585938 225.152344 C 147.09375 222.183594 148.796875 219.367188 150.121094 216.304688 C 151.644531 212.777344 153.335938 209.441406 155.160156 206.054688 C 156.660156 203.277344 158.386719 200.640625 159.65625 197.75 C 160.382812 196.097656 161.03125 194.375 161.855469 192.765625 C 162.824219 190.875 163.957031 189.054688 165.003906 187.207031 C 168.445312 181.128906 171.730469 174.960938 174.800781 168.691406 C 176.925781 164.355469 179.433594 160.1875 181.980469 156.0625 C 181.832031 156.5625 181.6875 157.066406 181.535156 157.5625 C 180.539062 160.773438 179.734375 164.054688 178.683594 167.246094 C 178.128906 168.9375 177.429688 170.59375 176.804688 172.261719 C 176.664062 172.632812 176.519531 173 176.386719 173.371094 C 176.359375 173.449219 176.339844 173.503906 176.328125 173.539062 C 175.984375 174.34375 175.644531 175.152344 175.300781 175.957031 C 173.921875 179.191406 172.484375 182.398438 171.074219 185.621094 C 170.382812 187.203125 169.742188 188.808594 169.074219 190.402344 C 168.84375 190.960938 168.613281 191.519531 168.378906 192.078125 C 168.371094 192.089844 168.214844 192.445312 168.15625 192.570312 C 167.941406 193.050781 167.722656 193.53125 167.507812 194.011719 C 166.792969 195.589844 165.980469 197.160156 165.375 198.785156 C 164.671875 200.675781 164.082031 202.617188 163.4375 204.527344 C 163.378906 204.703125 163.285156 204.90625 163.242188 205.097656 C 163.203125 205.179688 163.164062 205.265625 163.125 205.347656 C 162.652344 206.375 162.179688 207.398438 161.707031 208.425781 C 161.132812 209.671875 160.558594 210.917969 160.011719 212.179688 C 158.523438 215.625 156.996094 219.039062 155.429688 222.449219 C 154.1875 225.15625 152.496094 227.753906 151.566406 230.582031 C 150.730469 233.121094 149.851562 235.621094 148.933594 238.113281 C 148.515625 239.21875 148.101562 240.328125 147.679688 241.433594 C 147.488281 241.941406 147.292969 242.449219 147.101562 242.957031 C 146.320312 245.011719 149.597656 245.878906 150.382812 243.863281 C 151.089844 242.050781 151.792969 240.25 152.464844 238.433594 C 152.613281 238.078125 152.746094 237.71875 152.863281 237.355469 C 152.878906 237.308594 152.898438 237.261719 152.914062 237.214844 C 152.914062 237.210938 152.914062 237.210938 152.917969 237.210938 C 153.09375 236.910156 153.238281 236.578125 153.398438 236.265625 C 154.914062 233.273438 156.425781 230.421875 158.207031 227.589844 C 159.941406 224.835938 161.304688 222.011719 162.722656 219.078125 C 163.898438 216.644531 165.644531 214.515625 166.917969 212.136719 C 168.328125 209.507812 169.375 206.710938 170.875 204.125 C 172.558594 201.226562 174.265625 198.378906 176.058594 195.550781 C 179.152344 190.667969 182.019531 185.640625 185.152344 180.78125 C 186.523438 178.652344 187.9375 176.558594 189.242188 174.394531 C 188.5 176.367188 187.714844 178.324219 186.886719 180.296875 C 186.390625 181.484375 186.039062 182.710938 185.65625 183.9375 C 185.328125 184.980469 185 186.019531 184.671875 187.0625 C 184.617188 187.234375 184.546875 187.421875 184.492188 187.605469 C 184.527344 187.523438 184.539062 187.53125 184.472656 187.667969 C 184.460938 187.71875 184.4375 187.773438 184.429688 187.828125 C 184.4375 187.769531 184.453125 187.726562 184.464844 187.683594 C 184.445312 187.726562 184.429688 187.757812 184.390625 187.828125 C 183.40625 189.597656 182.484375 191.40625 181.53125 193.191406 C 180.84375 194.476562 180.464844 195.925781 179.992188 197.296875 C 179.664062 198.25 179.332031 199.203125 179.003906 200.15625 C 178.984375 200.210938 178.925781 200.371094 178.882812 200.503906 C 178.820312 200.632812 178.730469 200.820312 178.703125 200.878906 C 177.804688 202.6875 176.886719 204.488281 176.003906 206.304688 C 175.34375 207.664062 174.839844 209.109375 174.28125 210.515625 C 173.917969 211.417969 173.554688 212.316406 173.195312 213.222656 C 173.175781 213.273438 173.160156 213.3125 173.148438 213.34375 C 173.167969 213.296875 173.191406 213.242188 173.21875 213.1875 C 173.191406 213.246094 173.167969 213.308594 173.140625 213.367188 C 173.078125 213.519531 173.085938 213.492188 173.125 213.398438 C 173.039062 213.597656 172.953125 213.796875 172.863281 213.992188 C 171.441406 217.234375 169.988281 220.398438 168.375 223.550781 C 167.757812 224.753906 167.152344 225.921875 166.675781 227.1875 C 166.003906 228.96875 165.136719 230.769531 164.621094 232.601562 C 164.613281 232.617188 164.613281 232.617188 164.601562 232.636719 C 164.414062 232.960938 164.253906 233.304688 164.082031 233.640625 C 163.550781 234.652344 163.023438 235.667969 162.496094 236.679688 C 161.863281 237.898438 161.292969 239.074219 160.804688 240.355469 C 159.542969 243.660156 158.320312 246.964844 157.148438 250.304688 C 156.933594 250.910156 156.722656 251.515625 156.507812 252.125 C 155.871094 253.9375 158.730469 255.136719 159.617188 253.433594 C 160.632812 251.484375 161.570312 249.46875 162.675781 247.566406 C 163.726562 245.757812 165.101562 244.085938 166.308594 242.378906 C 167.410156 240.816406 168.207031 239.023438 169.105469 237.339844 C 170.011719 235.640625 171.003906 234.007812 172.003906 232.359375 C 176.136719 225.558594 180.058594 218.59375 183.996094 211.675781 C 188.09375 204.488281 192.269531 197.375 196.558594 190.300781 C 198.511719 187.078125 200.660156 183.972656 202.519531 180.695312 C 204.5625 177.105469 206.433594 173.394531 208.527344 169.835938 C 210.371094 166.707031 212.40625 163.679688 214.433594 160.664062 C 214.417969 160.699219 214.40625 160.730469 214.390625 160.765625 C 213.894531 161.925781 213.429688 163.101562 212.902344 164.242188 C 211.941406 166.324219 210.800781 168.320312 209.828125 170.394531 C 208.816406 172.558594 207.980469 174.828125 207.082031 177.039062 C 207.058594 177.082031 207.027344 177.132812 206.984375 177.21875 C 206.691406 177.785156 206.421875 178.363281 206.144531 178.933594 C 205.503906 180.230469 204.859375 181.523438 204.230469 182.824219 C 203.253906 184.847656 202.347656 186.910156 201.410156 188.953125 C 200.46875 191.007812 199.335938 192.984375 198.289062 194.984375 C 196.207031 198.976562 194.449219 203.160156 192.636719 207.277344 C 191.730469 209.335938 190.445312 211.234375 189.308594 213.167969 C 188.191406 215.078125 187.355469 217.144531 186.429688 219.152344 C 185.460938 221.261719 184.601562 223.417969 183.710938 225.5625 C 183.527344 226.003906 183.34375 226.445312 183.160156 226.890625 C 183.164062 226.882812 183.164062 226.878906 183.167969 226.875 C 183.160156 226.882812 183.160156 226.894531 183.15625 226.902344 C 183.132812 226.953125 183.109375 227.007812 183.089844 227.058594 C 183.023438 227.222656 183 227.25 183.015625 227.195312 C 183 227.230469 182.984375 227.261719 182.96875 227.292969 C 182.3125 228.640625 181.683594 230.003906 181.042969 231.359375 C 179.125 235.398438 177.042969 239.363281 175.015625 243.351562 C 173.953125 245.441406 173.171875 247.523438 172.378906 249.730469 C 172.144531 250.386719 171.910156 251.042969 171.675781 251.695312 C 171.613281 251.863281 171.542969 252.035156 171.492188 252.207031 C 170.851562 253.304688 170.398438 254.566406 169.863281 255.714844 C 168.90625 257.765625 168.03125 259.824219 167.175781 261.921875 C 166.882812 262.644531 166.589844 263.363281 166.292969 264.082031 C 166.199219 264.320312 166.101562 264.554688 166.007812 264.789062 C 165.996094 264.816406 165.972656 264.875 165.949219 264.929688 C 165.933594 264.964844 165.921875 264.992188 165.914062 265.011719 C 165.839844 265.171875 165.769531 265.335938 165.699219 265.5 C 165.453125 265.265625 165.207031 265.035156 164.964844 264.800781 C 163.214844 263.128906 161.386719 261.488281 159.746094 259.714844 Z M 184.207031 281.453125 C 181.902344 279.5625 179.714844 277.667969 177.554688 275.617188 C 175.398438 273.570312 173.101562 271.859375 170.714844 270.078125 C 170.449219 269.882812 170.183594 269.683594 169.917969 269.484375 C 169.886719 269.460938 169.875 269.445312 169.847656 269.421875 C 169.859375 269.4375 169.863281 269.441406 169.875 269.460938 C 169.867188 269.445312 169.847656 269.429688 169.839844 269.414062 C 169.671875 269.273438 169.636719 269.195312 169.695312 269.238281 C 169.40625 268.917969 168.992188 268.625 168.703125 268.347656 C 168.625 268.273438 168.546875 268.199219 168.464844 268.121094 C 170.296875 264.34375 172.101562 260.554688 174.03125 256.824219 C 175.449219 254.09375 176.785156 251.328125 178.125 248.558594 C 179.222656 246.292969 180.671875 244.179688 181.921875 242 C 184.972656 236.679688 187.675781 231.199219 190.589844 225.808594 C 191.980469 223.238281 193.101562 220.542969 194.453125 217.957031 C 195.625 215.714844 197.179688 213.675781 198.398438 211.457031 C 201.386719 206 204.339844 200.523438 207.296875 195.050781 C 209.875 190.269531 212.121094 185.332031 214.902344 180.65625 C 216.523438 177.933594 218.082031 175.246094 219.503906 172.417969 C 220.898438 169.648438 222.335938 166.902344 223.773438 164.15625 C 224.96875 161.875 226.027344 159.527344 227.1875 157.226562 C 227.824219 155.964844 228.484375 154.71875 229.128906 153.460938 C 228.386719 155.269531 227.628906 157.070312 226.878906 158.875 C 226.257812 160.367188 225.625 161.851562 225.019531 163.351562 C 225.007812 163.371094 224.996094 163.386719 224.980469 163.421875 C 224.839844 163.691406 224.71875 163.96875 224.585938 164.242188 C 224.148438 165.152344 223.710938 166.0625 223.273438 166.976562 C 222 169.625 220.8125 172.3125 219.617188 174.996094 C 217.507812 179.734375 214.859375 184.359375 213.195312 189.277344 C 212.597656 191.035156 212.003906 192.789062 211.40625 194.546875 C 211.382812 194.625 211.351562 194.703125 211.320312 194.78125 C 211.328125 194.773438 211.316406 194.8125 211.285156 194.890625 C 211.261719 194.960938 211.234375 195.03125 211.21875 195.101562 C 211.238281 195.019531 211.253906 194.972656 211.269531 194.921875 C 211.25 194.964844 211.234375 195 211.203125 195.054688 C 210.785156 195.769531 210.40625 196.507812 210.007812 197.234375 C 209.289062 198.539062 208.453125 199.835938 207.878906 201.214844 C 207.261719 202.695312 206.675781 204.1875 206.074219 205.671875 C 205.84375 206.246094 205.59375 206.8125 205.378906 207.394531 C 205.234375 207.710938 205.097656 208.03125 204.957031 208.351562 C 204.242188 209.972656 203.527344 211.589844 202.820312 213.214844 C 202.300781 214.40625 201.8125 215.609375 201.316406 216.808594 C 200.953125 217.675781 200.59375 218.539062 200.230469 219.40625 C 200.160156 219.582031 200.085938 219.757812 200.011719 219.933594 C 200.003906 219.953125 200 219.960938 199.988281 219.988281 C 197.550781 225.339844 195.128906 230.71875 193.09375 236.234375 C 192.789062 237.0625 192.484375 237.886719 192.179688 238.714844 C 192.117188 238.882812 192.039062 239.054688 191.988281 239.226562 C 192.003906 239.171875 192.019531 239.128906 192.03125 239.085938 C 192.015625 239.125 191.996094 239.167969 191.972656 239.214844 C 191.160156 240.859375 190.378906 242.523438 189.582031 244.175781 C 189.097656 245.179688 188.730469 246.199219 188.355469 247.25 C 187.84375 248.695312 187.054688 250.253906 186.742188 251.765625 C 186.808594 251.558594 186.902344 251.453125 186.746094 251.796875 C 186.738281 251.808594 186.730469 251.824219 186.722656 251.839844 C 186.71875 251.859375 186.714844 251.875 186.710938 251.894531 C 186.714844 251.875 186.71875 251.859375 186.722656 251.84375 C 186.574219 252.160156 186.433594 252.476562 186.292969 252.792969 C 185.882812 253.699219 185.472656 254.601562 185.0625 255.507812 C 184.570312 256.585938 184.066406 257.65625 183.632812 258.761719 C 182.578125 261.480469 181.523438 264.199219 180.433594 266.90625 C 179.882812 268.273438 179.332031 269.640625 178.785156 271.007812 C 178.066406 272.789062 181.039062 274.035156 181.894531 272.316406 C 183.046875 269.996094 184.335938 267.703125 185.324219 265.304688 C 185.972656 263.726562 186.613281 262.140625 187.257812 260.558594 C 187.429688 260.136719 187.609375 259.710938 187.777344 259.285156 C 187.785156 259.273438 187.789062 259.269531 187.804688 259.253906 C 187.988281 259.019531 188.117188 258.695312 188.261719 258.433594 C 190.945312 253.621094 193.40625 248.6875 196.199219 243.933594 C 199.003906 239.160156 201.484375 234.289062 203.785156 229.253906 C 204.863281 226.890625 206.507812 224.808594 207.878906 222.609375 C 209.183594 220.523438 210.210938 218.25 211.394531 216.089844 C 212.558594 213.960938 213.90625 211.898438 214.949219 209.710938 C 216.082031 207.335938 216.929688 204.792969 218.328125 202.558594 C 219.761719 200.273438 221.222656 198.027344 222.476562 195.636719 C 222.636719 195.335938 222.796875 195.035156 222.953125 194.730469 C 222.792969 195.167969 222.628906 195.605469 222.464844 196.039062 C 222.394531 196.230469 222.304688 196.425781 222.246094 196.621094 C 222.257812 196.578125 222.269531 196.550781 222.277344 196.515625 C 222.257812 196.566406 222.238281 196.617188 222.210938 196.675781 C 221.832031 197.507812 221.457031 198.34375 221.082031 199.175781 C 219.714844 202.199219 218.539062 205.230469 217.382812 208.339844 C 216.433594 210.894531 215.363281 213.414062 214.5 215.996094 C 213.984375 217.53125 213.585938 219.113281 213.128906 220.667969 C 212.964844 221.230469 212.5625 222.027344 212.554688 222.625 C 212.421875 222.921875 212.289062 223.21875 212.15625 223.519531 C 209.53125 229.382812 207.3125 235.371094 205.066406 241.386719 C 204.15625 243.824219 203.542969 246.359375 202.652344 248.800781 C 201.640625 251.582031 200.476562 254.304688 199.464844 257.085938 C 198.359375 260.144531 197.367188 263.160156 196.460938 266.28125 C 196.28125 266.894531 195.914062 267.648438 195.867188 268.292969 C 195.710938 268.625 195.558594 268.957031 195.402344 269.292969 C 194.648438 270.90625 193.871094 272.511719 193.140625 274.136719 C 192.570312 275.402344 192.292969 276.824219 191.914062 278.15625 C 191.65625 279.0625 191.402344 279.96875 191.144531 280.875 C 191.125 280.941406 191.09375 281.019531 191.066406 281.097656 C 191.070312 281.121094 191.054688 281.179688 191.023438 281.269531 C 191.015625 281.308594 191 281.347656 191 281.382812 C 191 281.355469 191.003906 281.34375 191.007812 281.316406 C 190.992188 281.351562 190.988281 281.375 190.96875 281.417969 C 190.34375 282.761719 189.710938 284.085938 189.128906 285.425781 C 187.488281 284.101562 185.835938 282.789062 184.207031 281.453125 Z M 205.144531 281.167969 C 203.378906 283.03125 201.351562 284.636719 199.449219 286.355469 C 198.007812 287.652344 196.613281 289 195.214844 290.339844 C 194.324219 289.628906 193.441406 288.90625 192.554688 288.195312 C 192.734375 287.78125 192.910156 287.363281 193.089844 286.953125 C 194.636719 283.4375 195.941406 279.945312 197.191406 276.3125 C 197.265625 276.097656 197.40625 275.839844 197.433594 275.609375 C 197.425781 275.679688 197.417969 275.742188 197.410156 275.789062 C 197.433594 275.714844 197.472656 275.625 197.527344 275.523438 C 198.03125 274.601562 198.535156 273.679688 199.039062 272.757812 C 199.773438 271.414062 200.574219 270.109375 201.109375 268.675781 C 201.832031 266.746094 202.632812 264.828125 203.28125 262.871094 C 203.289062 262.84375 203.289062 262.839844 203.296875 262.820312 C 203.433594 262.511719 203.566406 262.203125 203.703125 261.894531 C 204.191406 260.773438 204.679688 259.652344 205.171875 258.53125 C 205.742188 257.226562 206.300781 255.917969 206.835938 254.597656 C 207.289062 253.488281 207.738281 252.378906 208.1875 251.269531 C 208.355469 250.859375 208.523438 250.453125 208.6875 250.042969 C 208.710938 249.988281 208.726562 249.957031 208.746094 249.914062 C 208.734375 249.933594 208.730469 249.941406 208.714844 249.964844 C 208.730469 249.945312 208.738281 249.925781 208.75 249.90625 C 208.828125 249.738281 208.871094 249.683594 208.847656 249.738281 C 209.234375 249.09375 209.511719 248.332031 209.835938 247.671875 C 210.34375 246.625 210.855469 245.578125 211.363281 244.535156 C 212.011719 243.207031 212.515625 241.832031 213.042969 240.457031 C 214.351562 237.066406 215.671875 233.679688 216.929688 230.273438 C 216.941406 230.234375 216.953125 230.207031 216.964844 230.179688 C 216.945312 230.21875 216.929688 230.253906 216.914062 230.28125 C 216.933594 230.25 216.945312 230.210938 216.964844 230.179688 C 217.0625 229.910156 217.023438 230.046875 216.964844 230.179688 C 217.09375 229.933594 217.199219 229.664062 217.3125 229.414062 C 217.800781 228.359375 218.285156 227.304688 218.773438 226.25 C 219.394531 224.90625 220 223.566406 220.558594 222.199219 C 221.011719 221.097656 221.460938 219.992188 221.914062 218.890625 C 222.09375 218.449219 222.277344 218.003906 222.457031 217.558594 C 222.546875 217.34375 222.984375 216.488281 222.554688 217.3125 C 223.445312 215.609375 224.15625 213.789062 224.949219 212.039062 C 226.210938 209.261719 227.738281 206.597656 228.910156 203.78125 C 229.714844 201.859375 230.507812 199.933594 231.308594 198.011719 C 231.335938 197.945312 231.367188 197.875 231.398438 197.8125 C 231.382812 197.839844 231.371094 197.863281 231.351562 197.898438 C 231.472656 197.675781 231.5625 197.433594 231.664062 197.207031 C 232.148438 196.140625 232.628906 195.078125 233.113281 194.011719 C 234.535156 190.871094 235.804688 187.675781 237.101562 184.480469 C 237.769531 182.828125 238.441406 181.179688 239.113281 179.53125 C 239.28125 179.121094 239.449219 178.714844 239.613281 178.304688 C 239.722656 178.03125 239.949219 177.53125 239.640625 178.222656 C 239.972656 177.484375 240.289062 176.734375 240.613281 175.992188 C 242.085938 172.59375 243.5625 169.199219 245.039062 165.800781 C 245.652344 164.390625 246.203125 162.953125 246.769531 161.523438 C 247.164062 160.535156 247.5625 159.546875 247.949219 158.554688 C 247.964844 158.515625 247.972656 158.492188 247.984375 158.464844 C 247.96875 158.503906 247.953125 158.542969 247.9375 158.5625 C 247.957031 158.53125 247.96875 158.492188 247.988281 158.460938 C 248.089844 158.199219 248.042969 158.328125 247.988281 158.453125 C 248.113281 158.207031 248.21875 157.945312 248.335938 157.695312 C 249.890625 154.277344 251.453125 150.859375 253.019531 147.441406 C 253.320312 146.792969 253.601562 146.136719 253.875 145.476562 C 252.828125 148.636719 251.8125 151.800781 250.558594 154.875 C 249.933594 156.40625 249.21875 157.929688 248.675781 159.488281 C 248.167969 160.945312 247.8125 162.476562 247.382812 163.960938 C 246.554688 166.839844 245.515625 169.632812 244.558594 172.472656 C 243.761719 174.847656 243.398438 177.363281 242.644531 179.753906 C 241.726562 182.660156 240.761719 185.550781 239.769531 188.429688 C 237.84375 194.023438 236.179688 199.675781 234.542969 205.359375 C 233.800781 207.945312 233.179688 210.609375 232.132812 213.089844 C 231.433594 214.753906 230.648438 216.40625 230.023438 218.101562 C 229.546875 219.40625 229.234375 220.800781 228.851562 222.136719 C 227.285156 227.574219 225.132812 232.796875 223.433594 238.1875 C 222.472656 241.234375 221.511719 244.25 220.398438 247.242188 C 219.28125 250.253906 218.476562 253.253906 217.660156 256.359375 C 217.015625 258.816406 215.710938 261.101562 214.816406 263.476562 C 214.667969 263.875 214.523438 264.273438 214.378906 264.671875 C 213.335938 267.21875 212.34375 269.785156 211.414062 272.382812 C 210.976562 273.609375 210.539062 274.835938 210.101562 276.058594 C 208.410156 277.726562 206.78125 279.445312 205.144531 281.167969 Z M 228.289062 257.757812 C 228.039062 258.09375 228.214844 257.800781 228.328125 257.6875 C 228.191406 257.785156 228.066406 257.941406 227.949219 258.050781 C 226.042969 259.894531 224.0625 261.648438 222.386719 263.703125 C 221.339844 264.984375 220.351562 266.351562 219.230469 267.566406 C 218.507812 268.355469 217.632812 269.027344 216.835938 269.742188 C 216.46875 270.066406 216.113281 270.398438 215.753906 270.726562 C 216.742188 268.070312 217.742188 265.417969 218.789062 262.78125 C 221.039062 257.742188 223.179688 252.683594 225.046875 247.488281 C 225.351562 246.648438 225.652344 245.8125 225.953125 244.972656 C 226.054688 244.691406 226.164062 244.40625 226.257812 244.121094 C 226.296875 244.011719 226.320312 243.941406 226.339844 243.894531 C 226.910156 242.535156 227.503906 241.1875 228.089844 239.835938 C 229.179688 237.308594 230.371094 234.835938 231.554688 232.351562 C 233.773438 227.695312 236.183594 223.15625 238.261719 218.429688 C 238.789062 217.230469 239.28125 216.015625 239.792969 214.808594 C 240.128906 214.003906 240.46875 213.203125 240.808594 212.398438 C 240.898438 212.183594 240.992188 211.964844 241.082031 211.746094 C 241.085938 211.742188 241.085938 211.742188 241.09375 211.734375 C 241.949219 210.398438 242.507812 208.753906 243.191406 207.320312 C 243.605469 206.441406 244.023438 205.566406 244.4375 204.6875 C 246.816406 199.617188 249.332031 194.617188 251.730469 189.558594 C 252.976562 186.933594 254.058594 184.324219 255.09375 181.609375 C 255.367188 180.898438 255.640625 180.191406 255.90625 179.476562 C 255.957031 179.335938 256.027344 179.199219 256.066406 179.054688 C 256.046875 179.128906 256.03125 179.179688 256.015625 179.234375 C 256.042969 179.152344 256.074219 179.070312 256.101562 179.011719 C 256.816406 177.453125 257.515625 175.890625 258.222656 174.328125 C 260.449219 169.421875 262.9375 164.695312 264.699219 159.585938 C 264.800781 159.359375 264.898438 159.128906 264.996094 158.898438 C 265.386719 158 265.773438 157.105469 266.160156 156.207031 C 266.167969 156.1875 266.175781 156.167969 266.183594 156.148438 C 265.070312 159.125 263.867188 162.070312 262.757812 165.042969 C 261.964844 167.164062 261.398438 169.390625 260.734375 171.558594 C 260.074219 173.726562 259.238281 175.847656 258.484375 177.984375 C 256.96875 182.253906 255.5625 186.550781 254.175781 190.863281 C 253.488281 193.007812 252.628906 195.101562 251.832031 197.210938 C 251.742188 197.449219 251.648438 197.6875 251.5625 197.925781 C 251.546875 197.964844 251.515625 198.058594 251.488281 198.136719 C 251.484375 198.140625 251.480469 198.148438 251.480469 198.15625 C 251.375 198.40625 251.265625 198.65625 251.160156 198.910156 C 250.550781 200.351562 249.941406 201.792969 249.332031 203.234375 C 247.554688 207.441406 246.242188 211.875 244.644531 216.15625 C 243.875 218.222656 243.261719 220.332031 242.617188 222.441406 C 242.441406 223.011719 242.238281 223.578125 242.09375 224.15625 C 242.078125 224.21875 242.070312 224.25 242.066406 224.28125 C 242.050781 224.308594 242.042969 224.320312 242.027344 224.359375 C 241.40625 225.648438 240.8125 226.957031 240.207031 228.257812 C 238.292969 232.351562 236.839844 236.640625 235.410156 240.921875 C 234.703125 243.046875 233.984375 245.167969 233.265625 247.285156 C 233.015625 248.015625 232.769531 248.746094 232.519531 249.476562 C 232.453125 249.667969 232.175781 250.449219 232.222656 250.363281 C 231.816406 251.347656 231.371094 252.316406 230.945312 253.292969 C 230.625 254.035156 230.300781 254.777344 229.976562 255.519531 C 229.839844 255.703125 229.699219 255.886719 229.5625 256.070312 C 229.136719 256.632812 228.710938 257.195312 228.289062 257.757812 Z M 264.65625 159.6875 C 264.671875 159.65625 264.683594 159.625 264.699219 159.589844 C 264.632812 159.769531 264.488281 160.070312 264.65625 159.6875 Z M 250.558594 230.636719 C 250.402344 230.859375 250.242188 231.082031 250.09375 231.308594 C 249.648438 231.644531 249.269531 232.230469 248.902344 232.640625 C 248.277344 233.332031 247.652344 234.023438 247.027344 234.71875 C 245.167969 236.785156 243.558594 239.019531 241.894531 241.25 C 241.722656 241.480469 241.550781 241.707031 241.382812 241.9375 C 241.359375 241.964844 241.347656 241.984375 241.332031 242.003906 C 240.992188 242.4375 240.648438 242.871094 240.308594 243.308594 C 239.429688 244.425781 238.570312 245.578125 237.664062 246.679688 C 237.792969 246.28125 237.917969 245.882812 238.050781 245.496094 C 238.082031 245.402344 238.121094 245.304688 238.15625 245.210938 C 238.394531 244.789062 238.578125 244.308594 238.78125 243.875 C 239.398438 242.570312 240.015625 241.261719 240.632812 239.953125 C 241.527344 238.0625 242.359375 236.140625 243.214844 234.230469 C 244.074219 232.316406 245.039062 230.460938 245.984375 228.585938 C 246.957031 226.660156 247.765625 224.703125 248.585938 222.707031 C 248.835938 222.097656 249.085938 221.488281 249.335938 220.878906 C 249.425781 220.660156 249.515625 220.441406 249.605469 220.222656 C 249.601562 220.226562 249.601562 220.226562 249.597656 220.230469 C 249.601562 220.226562 249.605469 220.222656 249.609375 220.21875 C 249.613281 220.203125 249.621094 220.191406 249.625 220.175781 C 249.722656 219.941406 249.808594 219.882812 249.777344 219.96875 C 250.308594 219.210938 250.671875 218.160156 251.078125 217.375 C 252.019531 215.554688 252.917969 213.761719 253.734375 211.882812 C 254.601562 209.894531 255.480469 207.914062 256.273438 205.898438 C 256.816406 204.511719 257.359375 203.125 257.902344 201.734375 C 257.980469 201.535156 258.0625 201.335938 258.140625 201.136719 C 258.164062 201.09375 258.191406 201.050781 258.207031 201.027344 C 258.359375 200.785156 258.488281 200.515625 258.628906 200.265625 C 259.703125 198.324219 261.03125 196.390625 261.789062 194.300781 C 262.261719 192.992188 262.734375 191.683594 263.210938 190.375 C 263.414062 189.8125 263.625 189.253906 263.820312 188.6875 C 263.84375 188.621094 263.867188 188.554688 263.894531 188.488281 C 263.894531 188.484375 263.894531 188.484375 263.898438 188.480469 C 264.648438 187.46875 265.15625 186.148438 265.757812 185.039062 C 266.277344 184.070312 266.859375 183.117188 267.292969 182.105469 C 268.164062 180.066406 269.027344 178.015625 269.847656 175.953125 C 269.902344 175.832031 269.953125 175.710938 270.007812 175.589844 C 270.289062 174.960938 270.566406 174.328125 270.847656 173.699219 C 271.394531 172.46875 271.949219 171.238281 272.492188 170 C 273.386719 167.960938 274.117188 165.84375 274.917969 163.761719 C 274.988281 163.578125 275.0625 163.394531 275.132812 163.207031 C 275.117188 163.230469 275.113281 163.242188 275.09375 163.269531 C 275.113281 163.242188 275.125 163.203125 275.144531 163.171875 C 275.152344 163.15625 275.160156 163.136719 275.167969 163.117188 C 275.214844 162.984375 275.265625 162.917969 275.28125 162.917969 C 275.386719 162.699219 275.484375 162.472656 275.585938 162.265625 C 275.933594 161.554688 276.28125 160.84375 276.628906 160.136719 C 276.339844 161.546875 276.070312 162.964844 275.636719 164.332031 C 274.613281 167.554688 273.5 170.703125 272.609375 173.960938 C 271.726562 177.195312 270.746094 180.382812 269.734375 183.574219 C 268.90625 186.183594 267.726562 188.691406 267.050781 191.34375 C 266.191406 194.71875 265.316406 198.082031 264.386719 201.4375 C 263.535156 204.53125 262.261719 207.433594 261.261719 210.476562 C 260.378906 213.175781 259.921875 215.992188 258.871094 218.632812 C 258.695312 219.074219 258.515625 219.511719 258.332031 219.949219 C 256.207031 222.75 254.089844 225.5625 252.082031 228.445312 C 251.574219 229.175781 251.066406 229.90625 250.558594 230.636719 Z M 258.222656 200.949219 C 258.261719 200.867188 258.292969 200.820312 258.222656 200.949219 Z M 284.121094 174.867188 C 283.65625 176.398438 282.886719 178.066406 282.667969 179.65625 C 282.664062 179.667969 282.667969 179.667969 282.664062 179.675781 C 282.597656 179.824219 282.527344 179.972656 282.460938 180.117188 C 282.105469 180.882812 281.75 181.652344 281.390625 182.421875 C 280.230469 184.929688 279.050781 187.425781 277.863281 189.921875 C 276.183594 193.464844 274.003906 196.714844 271.851562 199.980469 C 273.050781 197.386719 274.238281 194.785156 275.355469 192.15625 C 277.304688 187.585938 279.507812 183.140625 281.632812 178.652344 C 282.878906 176.023438 283.765625 173.332031 284.699219 170.574219 C 284.777344 170.339844 284.878906 170.101562 284.941406 169.863281 C 285.28125 169.316406 285.535156 168.683594 285.828125 168.109375 C 286.316406 167.140625 286.804688 166.175781 287.292969 165.210938 C 286.28125 168.445312 285.101562 171.644531 284.121094 174.867188 Z M 289.761719 153.175781 C 289.414062 155.492188 289.195312 157.886719 288.683594 160.167969 C 288.484375 161.046875 288.253906 161.921875 288.011719 162.792969 C 287.628906 161.503906 285.710938 160.816406 284.945312 162.328125 C 283.871094 164.453125 282.558594 166.566406 281.710938 168.796875 C 281.207031 170.128906 280.792969 171.507812 280.335938 172.859375 C 280.117188 173.507812 279.878906 174.148438 279.679688 174.804688 C 279.652344 174.886719 279.640625 174.933594 279.628906 174.976562 C 279.605469 175.019531 279.582031 175.066406 279.542969 175.144531 C 277.445312 179.46875 275.246094 183.800781 273.363281 188.222656 C 271.878906 191.699219 270.300781 195.140625 268.714844 198.578125 C 269 197.476562 269.28125 196.371094 269.558594 195.273438 C 270.414062 191.925781 271.496094 188.769531 272.664062 185.515625 C 273.578125 182.957031 274.402344 180.328125 275.117188 177.707031 C 276.019531 174.390625 276.9375 171.125 278.03125 167.867188 C 278.453125 166.613281 278.921875 165.378906 279.21875 164.085938 C 279.65625 162.160156 280.03125 160.207031 280.539062 158.300781 C 281.25 155.632812 282.429688 153.085938 283.222656 150.433594 C 284.261719 146.972656 285.300781 143.511719 286.34375 140.054688 C 286.53125 139.429688 286.71875 138.808594 286.90625 138.1875 C 287.449219 136.386719 284.566406 135.074219 283.796875 136.875 C 283.742188 137.011719 283.6875 137.148438 283.628906 137.285156 C 283.628906 137.28125 283.628906 137.28125 283.625 137.28125 C 283.625 137.292969 283.621094 137.300781 283.617188 137.3125 C 282.847656 139.160156 282.132812 141.058594 281.257812 142.851562 C 280.261719 144.882812 278.960938 146.765625 277.9375 148.777344 C 276.914062 150.796875 276.167969 152.996094 275.304688 155.085938 C 275.207031 155.316406 275.074219 155.558594 275.039062 155.617188 C 275.058594 155.585938 275.101562 155.507812 275.1875 155.371094 C 274.953125 155.757812 274.777344 156.203125 274.582031 156.605469 C 273.9375 157.921875 273.292969 159.234375 272.648438 160.550781 C 271.683594 162.515625 270.96875 164.59375 270.183594 166.636719 C 269.984375 167.160156 269.769531 167.683594 269.578125 168.210938 C 269.566406 168.25 269.5625 168.261719 269.550781 168.289062 C 269.539062 168.320312 269.527344 168.339844 269.507812 168.382812 C 268.933594 169.652344 268.378906 170.925781 267.816406 172.195312 C 266.960938 174.117188 266.148438 176.054688 265.339844 177.996094 C 264.949219 178.941406 264.582031 179.910156 264.164062 180.84375 C 264.128906 180.886719 263.890625 181.335938 263.808594 181.488281 C 263.480469 182.097656 263.148438 182.710938 262.816406 183.324219 C 261.769531 185.261719 260.792969 187.085938 260.042969 189.152344 C 259.546875 190.523438 259.050781 191.894531 258.554688 193.265625 C 258.519531 193.363281 258.476562 193.464844 258.4375 193.566406 C 258.160156 193.886719 257.972656 194.425781 257.773438 194.785156 C 256.703125 196.71875 255.492188 198.617188 254.683594 200.675781 C 254.15625 202.015625 253.632812 203.359375 253.105469 204.699219 C 252.914062 205.1875 252.714844 205.675781 252.53125 206.167969 C 252.515625 206.210938 252.507812 206.226562 252.5 206.253906 C 252.484375 206.28125 252.480469 206.296875 252.460938 206.339844 C 251.570312 208.371094 250.761719 210.449219 249.800781 212.445312 C 249.605469 212.84375 249.402344 213.238281 249.199219 213.632812 C 249.292969 213.390625 249.386719 213.148438 249.476562 212.90625 C 250.265625 210.789062 250.960938 208.632812 251.691406 206.492188 C 251.730469 206.382812 251.890625 205.894531 251.945312 205.707031 C 252.074219 205.394531 252.214844 205.085938 252.34375 204.777344 C 252.953125 203.335938 253.5625 201.898438 254.167969 200.460938 C 255.082031 198.304688 255.875 196.101562 256.699219 193.910156 C 258.296875 189.679688 259.554688 185.300781 261.023438 181.023438 C 262.496094 176.734375 264.011719 172.488281 265.335938 168.152344 C 266.644531 163.875 268.445312 159.734375 269.988281 155.535156 C 271.527344 151.332031 272.738281 147.019531 273.976562 142.71875 C 274.59375 140.566406 275.261719 138.441406 275.953125 136.308594 C 276.652344 134.152344 277.164062 132.117188 277.609375 129.890625 C 277.828125 128.816406 278.042969 127.742188 278.261719 126.667969 C 278.695312 124.503906 275.742188 123.71875 274.980469 125.761719 C 273.207031 130.523438 271.59375 135.390625 269.625 140.070312 C 268.929688 141.730469 268.230469 143.386719 267.535156 145.042969 C 267.496094 145.128906 267.460938 145.21875 267.421875 145.308594 C 267.410156 145.335938 267.390625 145.371094 267.363281 145.429688 C 267.027344 146.105469 266.722656 146.796875 266.402344 147.480469 C 265.207031 150.027344 264.046875 152.574219 262.933594 155.160156 C 261.777344 157.839844 260.695312 160.535156 259.632812 163.253906 C 259.40625 163.824219 259.164062 164.390625 258.957031 164.96875 C 258.820312 165.183594 258.722656 165.453125 258.613281 165.683594 C 257.824219 167.304688 257.03125 168.929688 256.242188 170.554688 C 255.117188 172.867188 254.070312 175.230469 253.03125 177.582031 C 252.546875 178.675781 252.15625 179.808594 251.730469 180.921875 C 251.410156 181.769531 251.085938 182.617188 250.761719 183.464844 C 250.648438 183.769531 250.527344 184.070312 250.414062 184.378906 C 250.398438 184.425781 250.371094 184.480469 250.34375 184.535156 C 250.367188 184.496094 250.386719 184.464844 250.417969 184.414062 C 249.105469 186.542969 248.269531 189.035156 247.15625 191.273438 C 245.949219 193.703125 244.714844 196.121094 243.5625 198.578125 C 241.136719 203.742188 238.636719 208.867188 236.417969 214.121094 C 236.097656 214.878906 235.78125 215.636719 235.460938 216.394531 C 235.40625 216.523438 235.351562 216.652344 235.300781 216.777344 C 235.285156 216.808594 235.265625 216.84375 235.238281 216.90625 C 234.496094 218.457031 233.808594 220.035156 233.09375 221.601562 C 232.660156 222.550781 232.195312 223.484375 231.730469 224.417969 C 232.242188 222.582031 232.675781 220.71875 233.335938 218.941406 C 234.355469 216.175781 235.6875 213.589844 236.515625 210.757812 C 238.214844 204.925781 239.804688 199.0625 241.691406 193.289062 C 243.476562 187.828125 245.484375 182.472656 246.910156 176.902344 C 247.683594 173.867188 248.679688 170.976562 249.714844 168.015625 C 250.589844 165.511719 251.089844 162.882812 251.960938 160.378906 C 252.886719 157.734375 254.1875 155.226562 255.054688 152.558594 C 256.023438 149.574219 256.996094 146.613281 258.070312 143.671875 C 259.152344 140.710938 260.3125 137.796875 261.496094 134.878906 C 262.570312 132.234375 263.425781 129.507812 264.363281 126.816406 C 265.761719 122.816406 267.082031 118.78125 268.5 114.789062 C 269.648438 115.1875 270.851562 115.644531 271.992188 115.773438 C 272.015625 115.777344 272.019531 115.777344 272.035156 115.777344 C 272.179688 115.839844 272.320312 115.902344 272.464844 115.964844 C 273.316406 116.339844 274.167969 116.714844 275.019531 117.09375 C 275.796875 117.433594 276.578125 117.777344 277.355469 118.121094 C 277.472656 118.171875 277.804688 118.390625 277.957031 118.390625 C 279.003906 119.5625 280.355469 120.566406 281.511719 121.621094 C 281.875 121.949219 282.28125 122.472656 282.710938 122.714844 C 282.859375 122.933594 283.011719 123.148438 283.164062 123.363281 C 284.15625 124.78125 285.070312 126.324219 286.171875 127.660156 C 286.207031 127.707031 286.292969 127.816406 286.359375 127.894531 C 286.371094 127.933594 286.386719 127.972656 286.402344 128.007812 C 286.699219 128.726562 286.996094 129.441406 287.292969 130.160156 C 287.800781 131.382812 288.417969 132.605469 288.832031 133.859375 C 289.265625 135.191406 289.480469 136.640625 289.800781 138.007812 C 289.96875 138.730469 290.117188 139.46875 290.308594 140.1875 C 290.316406 140.207031 290.316406 140.21875 290.320312 140.234375 C 290.324219 140.195312 290.328125 140.152344 290.332031 140.101562 C 290.324219 140.164062 290.332031 140.234375 290.335938 140.300781 C 290.351562 140.394531 290.347656 140.457031 290.34375 140.484375 C 290.351562 140.5625 290.359375 140.644531 290.363281 140.71875 C 290.449219 142.429688 290.53125 144.144531 290.617188 145.859375 C 290.628906 146.109375 290.625 147.140625 290.6875 146.859375 C 290.621094 147.386719 290.53125 147.914062 290.453125 148.4375 C 290.222656 150.019531 289.996094 151.597656 289.761719 153.175781 Z M 289.761719 153.175781 " fill-opacity="1" fill-rule="nonzero"/></g><g fill="#fad02c" fill-opacity="1"><g transform="translate(41.327124, 120.857472)"><g><path d="M 28.476562 -58.15625 L 4.453125 -58.15625 L 4.453125 0.09375 L 24.117188 0.09375 C 26.898438 0.09375 57.972656 1.484375 57.972656 -29.960938 C 57.972656 -55.375 39.234375 -58.15625 28.476562 -58.15625 Z M 23.929688 -1.390625 L 11.039062 -1.390625 L 11.039062 -56.578125 L 24.949219 -56.578125 C 35.523438 -56.578125 51.105469 -52.683594 51.105469 -29.960938 C 51.105469 -7.328125 36.636719 -1.390625 23.929688 -1.390625 Z M 23.929688 -1.390625 "/></g></g></g><g fill="#fad02c" fill-opacity="1"><g transform="translate(103.564443, 120.857472)"><g><path d="M 5.378906 0.09375 L 11.964844 0.09375 L 11.964844 -58.15625 L 5.378906 -58.15625 Z M 5.378906 0.09375 "/></g></g></g><g fill="#fad02c" fill-opacity="1"><g transform="translate(121.373035, 120.857472)"><g><path d="M 39.234375 -29.589844 L 39.234375 -28.011719 L 47.582031 -28.011719 L 47.582031 -1.949219 C 44.429688 -0.742188 40.253906 0.183594 35.617188 0.183594 C 21.148438 0.183594 10.480469 -7.050781 10.480469 -28.847656 C 10.480469 -52.871094 25.785156 -57.785156 35.617188 -57.785156 C 46.5625 -57.785156 52.589844 -55.1875 52.589844 -55.1875 L 52.589844 -57.042969 C 52.589844 -57.042969 46.191406 -59.269531 35.617188 -59.269531 C 18.921875 -59.269531 3.710938 -50.367188 3.710938 -28.847656 C 3.710938 -4.082031 23.09375 1.761719 34.78125 1.761719 C 46.375 1.761719 54.167969 -3.152344 54.167969 -3.152344 L 54.167969 -29.589844 Z M 39.234375 -29.589844 "/></g></g></g><g fill="#fad02c" fill-opacity="1"><g transform="translate(180.178484, 120.857472)"><g><path d="M 5.378906 0.09375 L 11.964844 0.09375 L 11.964844 -58.15625 L 5.378906 -58.15625 Z M 5.378906 0.09375 "/></g></g></g><g fill="#fad02c" fill-opacity="1"><g transform="translate(197.987071, 120.857472)"><g><path d="M 45.542969 -58.15625 L 3.0625 -58.15625 L 3.0625 -56.671875 L 20.960938 -56.671875 L 20.960938 0.09375 L 27.640625 0.09375 L 27.640625 -56.671875 L 45.542969 -56.671875 Z M 45.542969 -58.15625 "/></g></g></g><g fill="#fad02c" fill-opacity="1"><g transform="translate(246.682444, 120.857472)"><g><path d="M 48.511719 0.09375 L 55.652344 0.09375 L 30.144531 -59.269531 L 29.679688 -59.269531 L 3.246094 0.09375 L 5.285156 0.09375 L 15.769531 -23.28125 L 38.398438 -23.28125 Z M 16.417969 -24.859375 L 27.269531 -49.253906 L 37.75 -24.859375 Z M 16.417969 -24.859375 "/></g></g></g><g fill="#fad02c" fill-opacity="1"><g transform="translate(305.673398, 120.857472)"><g><path d="M 11.039062 -1.390625 L 11.039062 -58.15625 L 4.453125 -58.15625 L 4.453125 0.09375 L 34.226562 0.09375 L 34.226562 -1.390625 Z M 11.039062 -1.390625 "/></g></g></g></svg>